<?xml version="1.0" encoding="UTF-8" standalone="no"?>
<!DOCTYPE svg PUBLIC "-//W3C//DTD SVG 1.1//EN" "http://www.w3.org/Graphics/SVG/1.1/DTD/svg11.dtd">
<svg width="100%" height="100%" viewBox="0 0 50 50" version="1.1" xmlns="http://www.w3.org/2000/svg" xmlns:xlink="http://www.w3.org/1999/xlink" xml:space="preserve" xmlns:serif="http://www.serif.com/" style="fill-rule:evenodd;clip-rule:evenodd;stroke-linejoin:round;stroke-miterlimit:2;">
    <g transform="matrix(1,0,0,1,-300,-164.5)">
        <g id="instagram" transform="matrix(1,0,0,1,-200.256,164.5)">
            <rect x="500.256" y="0" width="50" height="50" style="fill:none;"/>
            <g id="noun_Camera_1697836" transform="matrix(1.175,0,0,1.175,531.083,24.788)">
                <g transform="matrix(1,0,0,1,-25,-20)">
                    <g transform="matrix(0.8,0,0,0.8,-6,-6)">
                        <path d="M50.063,8.084L14.938,8.084C11.159,8.084 8.084,11.159 8.084,14.938L8.084,50.062C8.084,53.841 11.159,56.916 14.938,56.916L50.063,56.916C53.842,56.916 56.917,53.841 56.917,50.062L56.917,14.938C56.916,11.159 53.842,8.084 50.063,8.084ZM14.438,9.109L14.438,13.04C14.438,13.316 14.662,13.54 14.938,13.54C15.214,13.54 15.438,13.316 15.438,13.04L15.438,9.084L17.615,9.084L17.615,13.04C17.615,13.316 17.839,13.54 18.115,13.54C18.391,13.54 18.615,13.316 18.615,13.04L18.615,9.084L20.792,9.084L20.792,13.04C20.792,13.316 21.016,13.54 21.292,13.54C21.568,13.54 21.792,13.316 21.792,13.04L21.792,9.084L50.063,9.084C53.291,9.084 55.917,11.71 55.917,14.938L55.917,23.175L46.065,23.175C43.092,18.862 38.123,16.027 32.5,16.027C26.877,16.027 21.908,18.863 18.935,23.175L9.083,23.175L9.083,14.938C9.083,11.879 11.443,9.364 14.438,9.109ZM32.5,17.026C41.032,17.026 47.973,23.967 47.973,32.5C47.973,41.033 41.031,47.974 32.5,47.974C23.969,47.974 17.026,41.032 17.026,32.5C17.026,23.968 23.968,17.026 32.5,17.026ZM50.063,55.916L14.938,55.916C11.71,55.916 9.084,53.29 9.084,50.062L9.084,24.175L18.31,24.175C16.869,26.621 16.027,29.461 16.027,32.5C16.027,41.584 23.417,48.974 32.5,48.974C41.583,48.974 48.973,41.584 48.973,32.5C48.973,29.461 48.131,26.621 46.691,24.175L55.917,24.175L55.917,50.062C55.916,53.29 53.29,55.916 50.063,55.916Z" style="fill:white;fill-rule:nonzero;stroke:white;stroke-width:0.38px;"/>
                    </g>
                    <g transform="matrix(0.8,0,0,0.8,-6,-6)">
                        <path d="M32.5,43.766C38.713,43.766 43.768,38.712 43.768,32.501C43.768,26.288 38.713,21.233 32.5,21.233C26.287,21.233 21.233,26.288 21.233,32.501C21.232,38.712 26.287,43.766 32.5,43.766ZM32.5,22.233C38.162,22.233 42.768,26.839 42.768,32.501C42.768,38.161 38.162,42.766 32.5,42.766C26.839,42.766 22.233,38.162 22.233,32.501C22.232,26.839 26.838,22.233 32.5,22.233Z" style="fill:white;fill-rule:nonzero;stroke:white;stroke-width:0.38px;"/>
                    </g>
                    <g transform="matrix(0.8,0,0,0.8,-6,-6)">
                        <path d="M32.5,39.175C36.181,39.175 39.176,36.181 39.176,32.5C39.176,28.819 36.181,25.824 32.5,25.824C28.819,25.824 25.825,28.819 25.825,32.5C25.824,36.181 28.819,39.175 32.5,39.175ZM32.5,26.824C35.63,26.824 38.176,29.37 38.176,32.5C38.176,35.629 35.63,38.175 32.5,38.175C29.371,38.175 26.825,35.629 26.825,32.5C26.824,29.371 29.37,26.824 32.5,26.824Z" style="fill:white;fill-rule:nonzero;stroke:white;stroke-width:0.38px;"/>
                    </g>
                    <g transform="matrix(0.8,0,0,0.8,-6,-6)">
                        <path d="M48.65,19.497L50.371,19.497C51.814,19.497 52.988,18.323 52.988,16.879L52.988,15.158C52.988,13.714 51.814,12.54 50.371,12.54L48.65,12.54C47.206,12.54 46.031,13.714 46.031,15.158L46.031,16.879C46.031,18.323 47.206,19.497 48.65,19.497ZM47.031,15.158C47.031,14.266 47.758,13.54 48.65,13.54L50.371,13.54C51.263,13.54 51.988,14.266 51.988,15.158L51.988,16.879C51.988,17.771 51.262,18.497 50.371,18.497L48.65,18.497C47.757,18.497 47.031,17.771 47.031,16.879L47.031,15.158Z" style="fill:white;fill-rule:nonzero;stroke:white;stroke-width:0.38px;"/>
                    </g>
                </g>
            </g>
        </g>
    </g>
</svg>
