<?xml version="1.0" encoding="UTF-8" standalone="no"?>
<!DOCTYPE svg PUBLIC "-//W3C//DTD SVG 1.1//EN" "http://www.w3.org/Graphics/SVG/1.1/DTD/svg11.dtd">
<svg width="100%" height="100%" viewBox="0 0 50 50" version="1.1" xmlns="http://www.w3.org/2000/svg" xmlns:xlink="http://www.w3.org/1999/xlink" xml:space="preserve" xmlns:serif="http://www.serif.com/" style="fill-rule:evenodd;clip-rule:evenodd;stroke-linecap:round;stroke-linejoin:round;stroke-miterlimit:1.5;">
    <g transform="matrix(1,0,0,1,-599.744,0)">
        <g id="periode_houle" transform="matrix(1,0,0,1,-0.256098,0)">
            <rect x="600" y="0" width="50" height="50" style="fill:none;"/>
            <g id="winda-c001d56a5be34ec4e5e26fcbcea492e0cd2a7b460acac3a484ad2e1041db9b47" transform="matrix(1.18304,0,0,1.18304,625.655,29.3113)">
                <g transform="matrix(1,0,0,1,-20,-20)">
                    <clipPath id="_clip1">
                        <rect x="0" y="0" width="40" height="40"/>
                    </clipPath>
                    <g clip-path="url(#_clip1)">
                        <g>
                            <path d="M0.545,21.186C2.911,23.216 5.593,25.516 10.781,25.516C15.968,25.516 18.651,23.216 21.017,21.186C23.255,19.267 25.187,17.609 29.218,17.609C33.25,17.609 35.182,19.267 37.42,21.186C38.075,21.748 39.061,21.672 39.623,21.017C40.185,20.362 40.109,19.376 39.455,18.814C37.088,16.784 34.406,14.484 29.218,14.484C24.031,14.484 21.349,16.784 18.982,18.814C16.745,20.733 14.812,22.391 10.781,22.391C6.75,22.391 4.817,20.734 2.58,18.814C1.925,18.252 0.938,18.328 0.376,18.983C-0.186,19.638 -0.11,20.624 0.545,21.186Z" style="fill-rule:nonzero;"/>
                            <path d="M39.455,27.36C37.089,25.331 34.407,23.03 29.219,23.03C24.031,23.03 21.349,25.331 18.983,27.36C16.745,29.28 14.813,30.937 10.781,30.937C6.751,30.937 4.818,29.28 2.58,27.36L2.58,27.36C1.925,26.799 0.939,26.874 0.377,27.529C-0.185,28.184 -0.109,29.171 0.546,29.732C2.912,31.762 5.594,34.062 10.781,34.062C15.969,34.062 18.651,31.762 21.017,29.732C23.255,27.813 25.188,26.155 29.219,26.155C33.25,26.155 35.183,27.813 37.421,29.732C38.076,30.294 39.062,30.219 39.624,29.564C40.186,28.909 40.11,27.922 39.455,27.36Z" style="fill-rule:nonzero;"/>
                            <g transform="matrix(3.56719,0,0,5.18022,-15.6763,-32.5265)">
                                <path d="M5.142,7.49L15.171,7.506L13.575,6.65L15.171,7.506L13.464,8.363" style="fill:none;stroke:black;stroke-width:0.56px;"/>
                            </g>
                            <g transform="matrix(-3.56719,-4.0006e-16,6.9274e-16,-5.18022,55.612,45.158)">
                                <path d="M5.142,7.49L15.171,7.506L13.575,6.65L15.171,7.506L13.464,8.363" style="fill:none;stroke:black;stroke-width:0.56px;"/>
                            </g>
                        </g>
                    </g>
                </g>
            </g>
        </g>
    </g>
</svg>
