<?xml version="1.0" encoding="UTF-8" standalone="no"?>
<!DOCTYPE svg PUBLIC "-//W3C//DTD SVG 1.1//EN" "http://www.w3.org/Graphics/SVG/1.1/DTD/svg11.dtd">
<svg width="100%" height="100%" viewBox="0 0 50 50" version="1.1" xmlns="http://www.w3.org/2000/svg" xmlns:xlink="http://www.w3.org/1999/xlink" xml:space="preserve" xmlns:serif="http://www.serif.com/" style="fill-rule:evenodd;clip-rule:evenodd;stroke-linejoin:round;stroke-miterlimit:2;">
    <g transform="matrix(1,0,0,1,-303.744,-252)">
        <g id="planches" transform="matrix(1,0,0,1,-196.512,252)">
            <rect x="500.256" y="0" width="50" height="50" style="fill:none;"/>
            <g id="noun_surf_2419253" transform="matrix(0.0990853,0,0,0.0990853,524.574,31.3939)">
                <g transform="matrix(1,0,0,1,-256,-320)">
                    <g>
                        <path d="M69.5,95.7C60,99.6 48.2,110.9 46,142.4C45.7,146.3 48.6,149.6 52.5,149.9L53,149.9C56.6,149.9 59.7,147.1 60,143.4C61.3,124.4 66.6,112.1 74.8,108.7C83.6,105.1 95.2,111.6 103.4,117.7C106.5,120 110.9,119.4 113.2,116.3C115.5,113.2 114.9,108.8 111.8,106.5C91.8,91.4 77.7,92.3 69.5,95.7Z" style="fill:rgb(21,51,81);fill-rule:nonzero;"/>
                        <path d="M402,7.5C383.7,7.5 366.5,22 352.3,49.4C342.7,67.9 334.5,91.8 328.3,119.7C313.3,70.8 291.7,43.4 267.2,43.4C248,43.4 230.4,60.3 216.2,92.2C203.2,121.5 193.9,161.4 189.3,207.4C188.2,218.5 187.4,230 186.8,241.6C186.3,251.7 186.1,261.9 186.1,272C186.1,292.5 187,312.9 188.9,332.6L188.9,332.7C189,333.8 189.1,334.9 189.2,335.9L189.3,337.4C189.4,338.4 189.5,339.5 189.6,340.5L189.8,342.1C189.9,343.1 190,344.2 190.1,345.2L190.3,346.7C190.4,347.8 190.6,348.8 190.7,349.9L190.8,350.6C191.1,353.1 191.4,355.6 191.8,358L191.9,358.5C192,359.5 192.2,360.6 192.3,361.6L192.5,363C192.6,364 192.8,365 192.9,366L193.1,367.5C193.3,368.5 193.4,369.4 193.6,370.4L193.8,371.8C194,372.8 194.1,373.8 194.3,374.8L194.4,375.4C194.8,377.6 195.2,379.8 195.6,382L195.8,382.9C196,383.7 196.1,384.5 196.3,385.4L196.4,385.7L196.7,387.2C196.9,388.1 197.1,389 197.2,389.8L197.5,391.3C197.7,392.2 197.9,393 198.1,393.9L198.4,395.4L198.5,396C198.7,396.7 198.8,397.4 199,398L199.1,398.6C199.5,400.5 200,402.4 200.4,404.3L200.7,405.6L200.7,405.8L201,407L201,407.1L201.1,407.6L201.6,409.6C201.8,410.4 202,411.1 202.2,411.9L202.3,412.2L202.3,412.4L202.5,413.1L202.5,413.2C202.7,413.9 202.9,414.7 203.1,415.4L203.5,416.7L203.6,417L203.7,417.5L203.7,417.6L204.1,419L204.1,419.1L204.4,420.2L204.9,422L204.9,422.2C205,422.5 205.1,422.9 205.2,423.2L205.2,423.3C204.8,423.5 204.4,423.7 204,423.9C195.7,427.3 183.2,422.2 168.8,409.4C165.9,406.8 161.5,407.1 158.9,410C156.3,412.9 156.6,417.3 159.5,419.9C176,434.5 189,438.9 198.5,438.9C202.7,438.9 206.3,438 209.3,436.8C209.4,436.8 209.5,436.7 209.6,436.7L209.8,437.1C209.9,437.3 209.9,437.4 210,437.6C210.1,437.8 210.2,438.1 210.3,438.3C210.5,438.7 210.6,439.2 210.8,439.6L211,440.1L211.1,440.5L211.3,440.9C211.4,441.1 211.4,441.2 211.5,441.3C211.7,441.8 211.9,442.4 212.1,442.9L212.2,443.2C212.4,443.7 212.6,444.1 212.7,444.6L212.7,444.7L213,445.4C213.1,445.6 213.1,445.8 213.2,445.9L213.3,446C213.5,446.5 213.7,447.1 214,447.6L214,447.7L214.5,448.8L214.6,449.1L214.7,449.3L215.2,450.5L215.3,450.8L215.3,450.9C215.5,451.4 215.7,451.8 215.9,452.3L215.9,452.4L216.1,452.9L216.4,453.5L216.5,453.8L216.5,453.9L217.1,455.2L217.4,455.7L217.7,456.4L218.3,457.6L218.4,457.9L219,459.1L219.1,459.4C219.3,459.8 219.5,460.1 219.6,460.5L219.6,460.6L219.7,460.7L220.3,461.8L220.3,461.9C220.6,462.4 220.8,462.9 221.1,463.4L221.5,464.2L221.5,464.3L221.7,464.6C222,465.1 222.3,465.6 222.5,466.1L222.6,466.3C222.7,466.5 222.8,466.6 222.9,466.8C222.4,467 222,467.3 221.5,467.5C206.2,473.8 182,459.6 155.2,428.6C126.4,395.2 98,346.6 75.4,291.6C54.1,237.5 40,183 37,139C34.2,98.1 41.4,71 56.8,64.7C68.3,60 85.3,67 104.7,84.5C125.5,103.3 147.3,132.3 168,168.5C169.9,171.9 174.2,173 177.5,171.1C180.9,169.2 182,164.9 180.1,161.6C158.8,124.1 135.9,93.9 114.1,74.1C90.1,52.5 68.4,44.7 51.4,51.7C29.8,60.6 19.7,91.9 23,139.9C26.1,185.4 40.6,241.4 63.7,297.7C86.8,354 116,404 145.8,438.5C171.4,468.1 195.5,483.7 215.2,483.6C219.7,483.6 224,482.8 228.1,481.1C229.4,480.6 230.7,479.9 231.9,479.2C232,479.4 232.2,479.6 232.3,479.8L232.9,480.6L233,480.7L233,480.8C233,480.9 233.1,480.9 233.1,481C233.4,481.4 233.7,481.7 234,482.1L234,482.2L235.2,483.7L237.1,485.6L237.4,486L239.4,488L239.7,488.2L240.2,488.7C240.6,489.1 241,489.4 241.4,489.7L241.5,489.8C241.6,489.9 241.8,490 241.9,490.1C241.9,490.1 242,490.2 242.1,490.3C242.6,490.7 243,491.1 243.5,491.4C243.6,491.5 243.7,491.5 243.8,491.6C243.9,491.7 244,491.7 244.1,491.8L244.2,491.8L244.6,492.1L244.7,492.2C245,492.5 245.4,492.7 245.7,492.9C245.9,493 246,493.1 246.2,493.2L246.4,493.4L246.9,493.7C247.1,493.8 247.3,494 247.6,494.1C247.8,494.2 248.1,494.4 248.3,494.5L248.4,494.6C248.7,494.8 248.9,494.9 249.2,495C249.3,495.1 249.4,495.1 249.6,495.2C249.6,495.2 249.7,495.2 249.7,495.3C249.8,495.4 250,495.4 250.1,495.5C250.2,495.5 250.2,495.6 250.3,495.6L250.4,495.6C250.6,495.7 250.8,495.7 251,495.8C251.1,495.8 251.2,495.9 251.3,495.9C251.5,496 251.8,496 252,496L252.1,496C252.4,496 252.7,496.1 253,496.1C255.4,496.1 257.7,494.9 259,492.7C260.8,489.7 260.1,485.9 257.5,483.8C257.4,483.7 257.2,483.6 257.1,483.5L257,483.5C256.9,483.5 256.9,483.4 256.8,483.4C256.7,483.3 256.6,483.3 256.5,483.2C256.5,483.2 256.4,483.2 256.4,483.1C256.4,483.1 256.3,483.1 256.3,483C256.2,482.9 256.1,482.9 255.9,482.8L255.7,482.7C255.3,482.5 255,482.3 254.6,482C254.4,481.9 254.2,481.8 254,481.6C253.6,481.3 253.2,481.1 252.8,480.8L250.8,479.2C250.8,479.2 250.7,479.2 250.7,479.1L250.4,478.8C249.9,478.4 249.5,478 249,477.6L248.7,477.4L246.6,475.3C246.2,474.9 245.8,474.5 245.4,474C245.2,473.8 245,473.6 244.9,473.4C244.5,472.9 244,472.4 243.6,471.9L244,472L244,471.9C243.5,471.3 243,470.6 242.5,470L242.1,469.5L240.1,466.7C240,466.5 239.8,466.3 239.7,466.1L239.3,465.3C239.2,465.1 239.1,464.9 239,464.8L238.5,464C238.1,463.3 237.7,462.7 237.3,462L236.9,461.3C236.4,460.5 235.9,459.6 235.4,458.7L235,458C234.5,457.1 234.1,456.3 233.6,455.4L233.3,454.8L233.3,454.7C232.9,453.8 232.4,452.9 232,452L231.6,451.1C231.2,450.3 230.8,449.4 230.4,448.6L230.4,448.5L230,447.6C229.6,446.6 229.1,445.6 228.7,444.6L228.6,444.4L228.3,443.7L228.3,443.6C227.9,442.6 227.5,441.7 227.1,440.7L226.8,440C226.3,438.8 225.9,437.6 225.4,436.4L225.3,436.1L225.3,436L225.2,435.6C224.8,434.6 224.4,433.5 224,432.4L223.9,432.2L223.9,432.1L223.7,431.4C223.3,430.3 222.9,429.2 222.5,428.1L222.3,427.4L222.2,427.1L222.2,427C221.9,426 221.6,425.1 221.2,424.1L221,423.5L220.7,422.7L220.7,422.5C220.3,421.2 219.9,420 219.5,418.7C219.5,418.6 219.4,418.5 219.4,418.4L219.3,418C218.9,416.7 218.5,415.4 218.2,414.2L218.2,414.1L218,413.5L217.9,413.3L217.9,413.2C217.5,411.9 217.2,410.7 216.8,409.4L216.6,408.5C216.2,407.2 215.9,405.8 215.6,404.5L215.4,403.5L215.4,403.4L215.2,402.4L214.9,401.2C214.5,399.4 214,397.6 213.6,395.7L213.5,395.1C213.4,394.4 213.2,393.8 213.1,393.1L213,392.5L212.7,391.1C212.5,390.3 212.3,389.4 212.2,388.6L211,387C210.8,386.1 210.6,385.3 210.5,384.4L210.2,383L210.2,382.9L210.1,382.6C209.9,381.8 209.8,381.1 209.6,380.3L209.4,379.4C209,377.3 208.6,375.1 208.2,372.9L208.1,372.4C207.9,371.4 207.8,370.5 207.6,369.5L207.4,368.1C207.2,367.2 207.1,366.2 206.9,365.3L206.7,363.8C206.6,362.8 206.4,361.9 206.3,360.9L206.1,359.5C206,358.5 205.8,357.5 205.7,356.5L205.6,356C205.3,353.6 205,351.2 204.7,348.8L204.6,348.1C204.5,347.1 204.3,346 204.2,345L204,343.6C203.9,342.6 203.8,341.6 203.7,340.6L203.5,339.1C203.4,338.1 203.3,337.1 203.2,336.1L203.1,334.7C203.1,334.3 203,333.9 203,333.4L219.5,300.5L230,279.5L263.9,211.6C264.8,209.8 266.4,209.6 267.1,209.6C267.8,209.6 269.4,209.8 270.3,211.6L295.3,261.6C297,265.1 301.2,266.5 304.7,264.7C308.2,263 309.6,258.8 307.8,255.3L282.8,205.3C279.8,199.3 273.8,195.6 267.1,195.6C260.4,195.6 254.4,199.3 251.4,205.3L217.4,273L207,294L201,305.9C200.4,294.7 200.1,283.4 200.1,271.9C200.1,262 200.3,252 200.8,242.1C201.3,230.8 202.1,219.6 203.2,208.7C207.6,164.7 216.8,125.3 229,97.7C240.5,71.6 254.1,57.2 267.1,57.2C288,57.2 309.5,94.2 322.1,151.7C316.9,184.4 314.3,219.4 314.3,255.8C314.3,270.9 314.8,286.1 315.7,300.9C317.1,322.9 319.5,344.2 322.8,364.2L285.5,289.7C282.5,283.7 276.5,280 269.8,280C263.1,280 257.1,283.7 254.1,289.7L233.8,330.2L219.6,358.6C217.9,362.1 219.3,366.3 222.7,368C223.7,368.5 224.8,368.7 225.8,368.7C228.4,368.7 230.8,367.3 232.1,364.8L246.3,336.4L266.6,295.9C267.5,294.1 269.1,293.9 269.8,293.9C270.5,293.9 272.1,294.1 273,295.9L321.8,393.4C321.8,393.6 321.7,393.8 321.7,394C321.7,394.1 321.7,394.2 321.6,394.3L321.3,395.6C321.1,396.3 321,396.9 320.8,397.6L320.7,397.9L320.5,398.9L320,400.9L320,401L319.7,402.1L319.7,402.2L319.6,402.7C319.5,403.2 319.3,403.8 319.2,404.3L319.2,404.5L318.9,405.7L318.8,406.2C318.6,406.8 318.5,407.5 318.3,408.1L317.9,409.6L317.4,411.3L317.4,411.5L317.3,411.7L317.3,411.9L316.9,413.2L316.3,415.1L315.9,416.3L315.4,417.9L315.1,419L314.7,420.2L314.7,420.3L314.2,421.8L314.1,422C313.9,422.5 313.8,423.1 313.6,423.6L313.6,423.7L313.1,425.1L313.1,425.3L313,425.5C312.8,426 312.7,426.5 312.5,427L312.5,427.1C312.3,427.6 312.2,428 312,428.5C311.8,429 311.7,429.5 311.5,429.9L311.3,430.4C311.1,430.8 311,431.3 310.8,431.7L310.3,433.2L310.2,433.4C309.9,434.1 309.7,434.8 309.4,435.5L309.3,435.9L308.9,436.8L308.9,436.9L308.6,437.7L308.6,437.8L308.2,438.9L308.2,439L308.1,439.3L307.5,440.7L306.3,443.7C306.1,444.2 305.9,444.6 305.7,445.1C305.5,445.5 305.3,445.9 305.2,446.3L305.1,446.6C304.9,447 304.8,447.4 304.6,447.7L304.6,448L304.3,448.7L304.1,449.2C303.7,450 303.4,450.7 303,451.5L302.7,452L302.4,452.6L302.4,452.7C302.2,453.1 302,453.6 301.7,454L301.1,455.2C300.9,455.7 300.6,456.1 300.4,456.5C300.2,456.9 300,457.2 299.8,457.5C299.6,457.9 299.3,458.4 299.1,458.8L299,458.9C298.8,459.2 298.7,459.5 298.5,459.8C298.2,460.3 297.9,460.8 297.6,461.2L297.6,461.3L297.4,461.7L297.1,462.2C296.7,462.8 296.3,463.5 295.9,464.1L295.4,464.8C295.1,465.2 294.8,465.7 294.5,466.1L294,466.8C293.7,467.2 293.5,467.6 293.2,467.9L292.6,468.7C292.3,469.1 292.1,469.4 291.8,469.8L291.3,470.5C291,470.9 290.6,471.3 290.3,471.7L290.2,471.8L290.1,472L289.8,472.4C289.4,472.9 289,473.3 288.6,473.8L288.2,474.2C287.9,474.5 287.6,474.9 287.2,475.2L286.7,475.7C286.4,476 286.1,476.3 285.8,476.5C285.6,476.7 285.4,476.8 285.3,477C285,477.3 284.7,477.5 284.4,477.8L283.9,478.2C283.5,478.5 283.1,478.8 282.8,479.1C282.8,479.1 282.7,479.1 282.7,479.2L282.5,479.4L282.4,479.4C282.1,479.6 281.9,479.8 281.6,480C278.5,482.2 277.7,486.6 280,489.8C281.4,491.7 283.5,492.7 285.7,492.7C287.1,492.7 288.5,492.3 289.8,491.4C290.2,491.1 290.5,490.9 290.9,490.6L291.2,490.4L291.4,490.3L291.5,490.2C291.7,490 292,489.8 292.2,489.6C292.3,489.5 292.5,489.4 292.6,489.3C292.6,489.3 292.7,489.2 292.8,489.2L293,489L293.4,488.7C293.6,488.5 293.9,488.3 294.1,488.1L295.5,486.7L296,486.3L299.1,483.2C299.4,482.8 299.8,482.5 300.1,482.1L300.6,481.6L300.7,481.4L300.7,481.3C300.9,481 301.2,480.7 301.4,480.4C301.4,480.3 301.5,480.3 301.5,480.2L301.9,479.8L302,479.6L302.3,479.2L302.4,479C302.6,478.7 302.8,478.5 303,478.2L303.3,477.8L303.4,477.6L303.4,477.5L304.6,475.7L305.2,474.9L305.3,474.8L305.9,473.8C306.2,473.4 306.5,473 306.7,472.5L307,472L307.1,471.8C307.5,471.2 307.8,470.6 308.2,470.1L308.4,469.8L308.7,469.3C308.9,468.9 309.2,468.5 309.4,468.1L309.8,467.4L310.2,466.8L310.3,466.7L310.8,465.9L311.3,464.9L311.8,464.1L312.1,463.5L312.5,462.8L312.5,462.7L313,461.8L313.3,461.2L313.7,460.5L314,460C314.1,459.7 314.3,459.5 314.4,459.2L314.9,458.2L314.9,458.1C315.2,457.4 315.6,456.7 315.9,456L316,455.8L316.4,454.9L316.5,454.8C316.6,454.6 316.7,454.3 316.8,454.1L317,453.6L317.3,452.9L317.6,452.1L318.1,451.1L318.4,450.3L318.7,449.6L319.2,448.4L319.4,447.9L319.4,447.8L320,446.4L320,446.3L320.3,445.5L320.5,445L320.9,444.1L321,443.9L321.4,442.8L321.4,442.7L321.5,442.4L321.9,441.4L322,441.1L322,441C322.2,440.4 322.4,439.8 322.7,439.2C322.8,439.1 322.8,438.9 322.9,438.8L322.9,438.7L323.1,438.3L323.4,437.5L323.4,437.4L323.9,436.1L323.9,436L324.1,435.4L324.2,435.2L324.8,433.4L325.2,432.3L325.2,432.2L325.4,431.7L325.4,431.6L325.9,430.1L326.1,429.4L326.5,428.3L326.5,428.2L327,426.6L327.3,425.6L327.3,425.5L327.9,423.7C328,423.3 328.2,422.8 328.3,422.4L328.4,422.1C328.5,421.7 328.7,421.2 328.8,420.8L328.9,420.6L329.1,419.8L329.6,418.1L330,416.7L330.1,416.3L330.1,416L330.6,414.3L331.1,412.8L331.3,412.1L331.3,412C331.5,411.4 331.6,410.7 331.8,410.1L331.8,409.6C338.1,432.9 345.8,452.8 354.5,468.1C371.7,498.4 389.5,504.8 401.4,504.8C419.1,504.8 435.7,491.3 449.6,465.7L465.3,471.3C466.9,471.9 468.5,472.2 470.2,472.2C474,472.2 477.7,470.7 480.5,467.8C484.4,463.7 485.6,457.8 483.4,452.5L468,414.9L414.3,283.7C411.7,277.4 405.2,273.9 398.5,275.2C391.8,276.5 387.1,282.2 387.1,289.1L387.1,361.1C387.1,365 390.2,368.1 394.1,368.1C398,368.1 401.1,365 401.1,361.1L401.1,289L401.3,289L401.3,289.1L455,420.3L470.4,457.9C470.4,458 470.5,458.1 470.3,458.2C470.2,458.3 470.1,458.3 470,458.3L448.6,450.7L406.6,435.7C403.3,434.5 401,431.3 401,427.8L401,395.5C401,391.6 397.9,388.5 394,388.5C390.1,388.5 387,391.6 387,395.5L387,427.8C387,437.3 393,445.7 401.9,448.9L436.2,461.1C425.3,480.5 413,491 401.3,491C376.6,491 352,446.1 338.5,376.6L338.5,376.5C333.9,353 330.8,327.5 329.1,300.8C328.2,286.3 327.7,271.4 327.7,256.6C327.7,220.4 330.3,185.7 335.5,153.4C348.1,74.9 374.5,22.2 401.3,22.2C419.3,22.2 437.7,46.2 451.7,88.1C466.7,133 475,192.9 475,256.6C475,296.8 471.6,336.5 465.2,371.5C464.5,375.3 467,379 470.8,379.6C471.2,379.7 471.7,379.7 472.1,379.7C475.4,379.7 478.4,377.3 479,374C485.6,338.2 489,297.6 489,256.6C489,191.4 480.5,129.9 465,83.6C449.4,34.4 426.8,7.5 402,7.5Z" style="fill:rgb(21,51,81);fill-rule:nonzero;"/>
                    </g>
                </g>
            </g>
            <g id="noun_surf_24192531" serif:id="noun_surf_2419253" transform="matrix(0.0990853,0,0,0.0990853,524.574,31.3939)">
                <g transform="matrix(1,0,0,1,-256,-320)">
                    <g>
                        <path d="M69.5,95.7C60,99.6 48.2,110.9 46,142.4C45.7,146.3 48.6,149.6 52.5,149.9L53,149.9C56.6,149.9 59.7,147.1 60,143.4C61.3,124.4 66.6,112.1 74.8,108.7C83.6,105.1 95.2,111.6 103.4,117.7C106.5,120 110.9,119.4 113.2,116.3C115.5,113.2 114.9,108.8 111.8,106.5C91.8,91.4 77.7,92.3 69.5,95.7Z" style="fill:rgb(21,51,81);fill-rule:nonzero;"/>
                        <path d="M402,7.5C383.7,7.5 366.5,22 352.3,49.4C342.7,67.9 334.5,91.8 328.3,119.7C313.3,70.8 291.7,43.4 267.2,43.4C248,43.4 230.4,60.3 216.2,92.2C203.2,121.5 193.9,161.4 189.3,207.4C188.2,218.5 187.4,230 186.8,241.6C186.3,251.7 186.1,261.9 186.1,272C186.1,292.5 187,312.9 188.9,332.6L188.9,332.7C189,333.8 189.1,334.9 189.2,335.9L189.3,337.4C189.4,338.4 189.5,339.5 189.6,340.5L189.8,342.1C189.9,343.1 190,344.2 190.1,345.2L190.3,346.7C190.4,347.8 190.6,348.8 190.7,349.9L190.8,350.6C191.1,353.1 191.4,355.6 191.8,358L191.9,358.5C192,359.5 192.2,360.6 192.3,361.6L192.5,363C192.6,364 192.8,365 192.9,366L193.1,367.5C193.3,368.5 193.4,369.4 193.6,370.4L193.8,371.8C194,372.8 194.1,373.8 194.3,374.8L194.4,375.4C194.8,377.6 195.2,379.8 195.6,382L195.8,382.9C196,383.7 196.1,384.5 196.3,385.4L196.4,385.7L196.7,387.2C196.9,388.1 197.1,389 197.2,389.8L197.5,391.3C197.7,392.2 197.9,393 198.1,393.9L198.4,395.4L198.5,396C198.7,396.7 198.8,397.4 199,398L199.1,398.6C199.5,400.5 200,402.4 200.4,404.3L200.7,405.6L200.7,405.8L201,407L201,407.1L201.1,407.6L201.6,409.6C201.8,410.4 202,411.1 202.2,411.9L202.3,412.2L202.3,412.4L202.5,413.1L202.5,413.2C202.7,413.9 202.9,414.7 203.1,415.4L203.5,416.7L203.6,417L203.7,417.5L203.7,417.6L204.1,419L204.1,419.1L204.4,420.2L204.9,422L204.9,422.2C205,422.5 205.1,422.9 205.2,423.2L205.2,423.3C204.8,423.5 204.4,423.7 204,423.9C195.7,427.3 183.2,422.2 168.8,409.4C165.9,406.8 161.5,407.1 158.9,410C156.3,412.9 156.6,417.3 159.5,419.9C176,434.5 189,438.9 198.5,438.9C202.7,438.9 206.3,438 209.3,436.8C209.4,436.8 209.5,436.7 209.6,436.7L209.8,437.1C209.9,437.3 209.9,437.4 210,437.6C210.1,437.8 210.2,438.1 210.3,438.3C210.5,438.7 210.6,439.2 210.8,439.6L211,440.1L211.1,440.5L211.3,440.9C211.4,441.1 211.4,441.2 211.5,441.3C211.7,441.8 211.9,442.4 212.1,442.9L212.2,443.2C212.4,443.7 212.6,444.1 212.7,444.6L212.7,444.7L213,445.4C213.1,445.6 213.1,445.8 213.2,445.9L213.3,446C213.5,446.5 213.7,447.1 214,447.6L214,447.7L214.5,448.8L214.6,449.1L214.7,449.3L215.2,450.5L215.3,450.8L215.3,450.9C215.5,451.4 215.7,451.8 215.9,452.3L215.9,452.4L216.1,452.9L216.4,453.5L216.5,453.8L216.5,453.9L217.1,455.2L217.4,455.7L217.7,456.4L218.3,457.6L218.4,457.9L219,459.1L219.1,459.4C219.3,459.8 219.5,460.1 219.6,460.5L219.6,460.6L219.7,460.7L220.3,461.8L220.3,461.9C220.6,462.4 220.8,462.9 221.1,463.4L221.5,464.2L221.5,464.3L221.7,464.6C222,465.1 222.3,465.6 222.5,466.1L222.6,466.3C222.7,466.5 222.8,466.6 222.9,466.8C222.4,467 222,467.3 221.5,467.5C206.2,473.8 182,459.6 155.2,428.6C126.4,395.2 98,346.6 75.4,291.6C54.1,237.5 40,183 37,139C34.2,98.1 41.4,71 56.8,64.7C68.3,60 85.3,67 104.7,84.5C125.5,103.3 147.3,132.3 168,168.5C169.9,171.9 174.2,173 177.5,171.1C180.9,169.2 182,164.9 180.1,161.6C158.8,124.1 135.9,93.9 114.1,74.1C90.1,52.5 68.4,44.7 51.4,51.7C29.8,60.6 19.7,91.9 23,139.9C26.1,185.4 40.6,241.4 63.7,297.7C86.8,354 116,404 145.8,438.5C171.4,468.1 195.5,483.7 215.2,483.6C219.7,483.6 224,482.8 228.1,481.1C229.4,480.6 230.7,479.9 231.9,479.2C232,479.4 232.2,479.6 232.3,479.8L232.9,480.6L233,480.7L233,480.8C233,480.9 233.1,480.9 233.1,481C233.4,481.4 233.7,481.7 234,482.1L234,482.2L235.2,483.7L237.1,485.6L237.4,486L239.4,488L239.7,488.2L240.2,488.7C240.6,489.1 241,489.4 241.4,489.7L241.5,489.8C241.6,489.9 241.8,490 241.9,490.1C241.9,490.1 242,490.2 242.1,490.3C242.6,490.7 243,491.1 243.5,491.4C243.6,491.5 243.7,491.5 243.8,491.6C243.9,491.7 244,491.7 244.1,491.8L244.2,491.8L244.6,492.1L244.7,492.2C245,492.5 245.4,492.7 245.7,492.9C245.9,493 246,493.1 246.2,493.2L246.4,493.4L246.9,493.7C247.1,493.8 247.3,494 247.6,494.1C247.8,494.2 248.1,494.4 248.3,494.5L248.4,494.6C248.7,494.8 248.9,494.9 249.2,495C249.3,495.1 249.4,495.1 249.6,495.2C249.6,495.2 249.7,495.2 249.7,495.3C249.8,495.4 250,495.4 250.1,495.5C250.2,495.5 250.2,495.6 250.3,495.6L250.4,495.6C250.6,495.7 250.8,495.7 251,495.8C251.1,495.8 251.2,495.9 251.3,495.9C251.5,496 251.8,496 252,496L252.1,496C252.4,496 252.7,496.1 253,496.1C255.4,496.1 257.7,494.9 259,492.7C260.8,489.7 260.1,485.9 257.5,483.8C257.4,483.7 257.2,483.6 257.1,483.5L257,483.5C256.9,483.5 256.9,483.4 256.8,483.4C256.7,483.3 256.6,483.3 256.5,483.2C256.5,483.2 256.4,483.2 256.4,483.1C256.4,483.1 256.3,483.1 256.3,483C256.2,482.9 256.1,482.9 255.9,482.8L255.7,482.7C255.3,482.5 255,482.3 254.6,482C254.4,481.9 254.2,481.8 254,481.6C253.6,481.3 253.2,481.1 252.8,480.8L250.8,479.2C250.8,479.2 250.7,479.2 250.7,479.1L250.4,478.8C249.9,478.4 249.5,478 249,477.6L248.7,477.4L246.6,475.3C246.2,474.9 245.8,474.5 245.4,474C245.2,473.8 245,473.6 244.9,473.4C244.5,472.9 244,472.4 243.6,471.9L244,472L244,471.9C243.5,471.3 243,470.6 242.5,470L242.1,469.5L240.1,466.7C240,466.5 239.8,466.3 239.7,466.1L239.3,465.3C239.2,465.1 239.1,464.9 239,464.8L238.5,464C238.1,463.3 237.7,462.7 237.3,462L236.9,461.3C236.4,460.5 235.9,459.6 235.4,458.7L235,458C234.5,457.1 234.1,456.3 233.6,455.4L233.3,454.8L233.3,454.7C232.9,453.8 232.4,452.9 232,452L231.6,451.1C231.2,450.3 230.8,449.4 230.4,448.6L230.4,448.5L230,447.6C229.6,446.6 229.1,445.6 228.7,444.6L228.6,444.4L228.3,443.7L228.3,443.6C227.9,442.6 227.5,441.7 227.1,440.7L226.8,440C226.3,438.8 225.9,437.6 225.4,436.4L225.3,436.1L225.3,436L225.2,435.6C224.8,434.6 224.4,433.5 224,432.4L223.9,432.2L223.9,432.1L223.7,431.4C223.3,430.3 222.9,429.2 222.5,428.1L222.3,427.4L222.2,427.1L222.2,427C221.9,426 221.6,425.1 221.2,424.1L221,423.5L220.7,422.7L220.7,422.5C220.3,421.2 219.9,420 219.5,418.7C219.5,418.6 219.4,418.5 219.4,418.4L219.3,418C218.9,416.7 218.5,415.4 218.2,414.2L218.2,414.1L218,413.5L217.9,413.3L217.9,413.2C217.5,411.9 217.2,410.7 216.8,409.4L216.6,408.5C216.2,407.2 215.9,405.8 215.6,404.5L215.4,403.5L215.4,403.4L215.2,402.4L214.9,401.2C214.5,399.4 214,397.6 213.6,395.7L213.5,395.1C213.4,394.4 213.2,393.8 213.1,393.1L213,392.5L212.7,391.1C212.5,390.3 212.3,389.4 212.2,388.6L211,387C210.8,386.1 210.6,385.3 210.5,384.4L210.2,383L210.2,382.9L210.1,382.6C209.9,381.8 209.8,381.1 209.6,380.3L209.4,379.4C209,377.3 208.6,375.1 208.2,372.9L208.1,372.4C207.9,371.4 207.8,370.5 207.6,369.5L207.4,368.1C207.2,367.2 207.1,366.2 206.9,365.3L206.7,363.8C206.6,362.8 206.4,361.9 206.3,360.9L206.1,359.5C206,358.5 205.8,357.5 205.7,356.5L205.6,356C205.3,353.6 205,351.2 204.7,348.8L204.6,348.1C204.5,347.1 204.3,346 204.2,345L204,343.6C203.9,342.6 203.8,341.6 203.7,340.6L203.5,339.1C203.4,338.1 203.3,337.1 203.2,336.1L203.1,334.7C203.1,334.3 203,333.9 203,333.4L219.5,300.5L230,279.5L263.9,211.6C264.8,209.8 266.4,209.6 267.1,209.6C267.8,209.6 269.4,209.8 270.3,211.6L295.3,261.6C297,265.1 301.2,266.5 304.7,264.7C308.2,263 309.6,258.8 307.8,255.3L282.8,205.3C279.8,199.3 273.8,195.6 267.1,195.6C260.4,195.6 254.4,199.3 251.4,205.3L217.4,273L207,294L201,305.9C200.4,294.7 200.1,283.4 200.1,271.9C200.1,262 200.3,252 200.8,242.1C201.3,230.8 202.1,219.6 203.2,208.7C207.6,164.7 216.8,125.3 229,97.7C240.5,71.6 254.1,57.2 267.1,57.2C288,57.2 309.5,94.2 322.1,151.7C316.9,184.4 314.3,219.4 314.3,255.8C314.3,270.9 314.8,286.1 315.7,300.9C317.1,322.9 319.5,344.2 322.8,364.2L285.5,289.7C282.5,283.7 276.5,280 269.8,280C263.1,280 257.1,283.7 254.1,289.7L233.8,330.2L219.6,358.6C217.9,362.1 219.3,366.3 222.7,368C223.7,368.5 224.8,368.7 225.8,368.7C228.4,368.7 230.8,367.3 232.1,364.8L246.3,336.4L266.6,295.9C267.5,294.1 269.1,293.9 269.8,293.9C270.5,293.9 272.1,294.1 273,295.9L321.8,393.4C321.8,393.6 321.7,393.8 321.7,394C321.7,394.1 321.7,394.2 321.6,394.3L321.3,395.6C321.1,396.3 321,396.9 320.8,397.6L320.7,397.9L320.5,398.9L320,400.9L320,401L319.7,402.1L319.7,402.2L319.6,402.7C319.5,403.2 319.3,403.8 319.2,404.3L319.2,404.5L318.9,405.7L318.8,406.2C318.6,406.8 318.5,407.5 318.3,408.1L317.9,409.6L317.4,411.3L317.4,411.5L317.3,411.7L317.3,411.9L316.9,413.2L316.3,415.1L315.9,416.3L315.4,417.9L315.1,419L314.7,420.2L314.7,420.3L314.2,421.8L314.1,422C313.9,422.5 313.8,423.1 313.6,423.6L313.6,423.7L313.1,425.1L313.1,425.3L313,425.5C312.8,426 312.7,426.5 312.5,427L312.5,427.1C312.3,427.6 312.2,428 312,428.5C311.8,429 311.7,429.5 311.5,429.9L311.3,430.4C311.1,430.8 311,431.3 310.8,431.7L310.3,433.2L310.2,433.4C309.9,434.1 309.7,434.8 309.4,435.5L309.3,435.9L308.9,436.8L308.9,436.9L308.6,437.7L308.6,437.8L308.2,438.9L308.2,439L308.1,439.3L307.5,440.7L306.3,443.7C306.1,444.2 305.9,444.6 305.7,445.1C305.5,445.5 305.3,445.9 305.2,446.3L305.1,446.6C304.9,447 304.8,447.4 304.6,447.7L304.6,448L304.3,448.7L304.1,449.2C303.7,450 303.4,450.7 303,451.5L302.7,452L302.4,452.6L302.4,452.7C302.2,453.1 302,453.6 301.7,454L301.1,455.2C300.9,455.7 300.6,456.1 300.4,456.5C300.2,456.9 300,457.2 299.8,457.5C299.6,457.9 299.3,458.4 299.1,458.8L299,458.9C298.8,459.2 298.7,459.5 298.5,459.8C298.2,460.3 297.9,460.8 297.6,461.2L297.6,461.3L297.4,461.7L297.1,462.2C296.7,462.8 296.3,463.5 295.9,464.1L295.4,464.8C295.1,465.2 294.8,465.7 294.5,466.1L294,466.8C293.7,467.2 293.5,467.6 293.2,467.9L292.6,468.7C292.3,469.1 292.1,469.4 291.8,469.8L291.3,470.5C291,470.9 290.6,471.3 290.3,471.7L290.2,471.8L290.1,472L289.8,472.4C289.4,472.9 289,473.3 288.6,473.8L288.2,474.2C287.9,474.5 287.6,474.9 287.2,475.2L286.7,475.7C286.4,476 286.1,476.3 285.8,476.5C285.6,476.7 285.4,476.8 285.3,477C285,477.3 284.7,477.5 284.4,477.8L283.9,478.2C283.5,478.5 283.1,478.8 282.8,479.1C282.8,479.1 282.7,479.1 282.7,479.2L282.5,479.4L282.4,479.4C282.1,479.6 281.9,479.8 281.6,480C278.5,482.2 277.7,486.6 280,489.8C281.4,491.7 283.5,492.7 285.7,492.7C287.1,492.7 288.5,492.3 289.8,491.4C290.2,491.1 290.5,490.9 290.9,490.6L291.2,490.4L291.4,490.3L291.5,490.2C291.7,490 292,489.8 292.2,489.6C292.3,489.5 292.5,489.4 292.6,489.3C292.6,489.3 292.7,489.2 292.8,489.2L293,489L293.4,488.7C293.6,488.5 293.9,488.3 294.1,488.1L295.5,486.7L296,486.3L299.1,483.2C299.4,482.8 299.8,482.5 300.1,482.1L300.6,481.6L300.7,481.4L300.7,481.3C300.9,481 301.2,480.7 301.4,480.4C301.4,480.3 301.5,480.3 301.5,480.2L301.9,479.8L302,479.6L302.3,479.2L302.4,479C302.6,478.7 302.8,478.5 303,478.2L303.3,477.8L303.4,477.6L303.4,477.5L304.6,475.7L305.2,474.9L305.3,474.8L305.9,473.8C306.2,473.4 306.5,473 306.7,472.5L307,472L307.1,471.8C307.5,471.2 307.8,470.6 308.2,470.1L308.4,469.8L308.7,469.3C308.9,468.9 309.2,468.5 309.4,468.1L309.8,467.4L310.2,466.8L310.3,466.7L310.8,465.9L311.3,464.9L311.8,464.1L312.1,463.5L312.5,462.8L312.5,462.7L313,461.8L313.3,461.2L313.7,460.5L314,460C314.1,459.7 314.3,459.5 314.4,459.2L314.9,458.2L314.9,458.1C315.2,457.4 315.6,456.7 315.9,456L316,455.8L316.4,454.9L316.5,454.8C316.6,454.6 316.7,454.3 316.8,454.1L317,453.6L317.3,452.9L317.6,452.1L318.1,451.1L318.4,450.3L318.7,449.6L319.2,448.4L319.4,447.9L319.4,447.8L320,446.4L320,446.3L320.3,445.5L320.5,445L320.9,444.1L321,443.9L321.4,442.8L321.4,442.7L321.5,442.4L321.9,441.4L322,441.1L322,441C322.2,440.4 322.4,439.8 322.7,439.2C322.8,439.1 322.8,438.9 322.9,438.8L322.9,438.7L323.1,438.3L323.4,437.5L323.4,437.4L323.9,436.1L323.9,436L324.1,435.4L324.2,435.2L324.8,433.4L325.2,432.3L325.2,432.2L325.4,431.7L325.4,431.6L325.9,430.1L326.1,429.4L326.5,428.3L326.5,428.2L327,426.6L327.3,425.6L327.3,425.5L327.9,423.7C328,423.3 328.2,422.8 328.3,422.4L328.4,422.1C328.5,421.7 328.7,421.2 328.8,420.8L328.9,420.6L329.1,419.8L329.6,418.1L330,416.7L330.1,416.3L330.1,416L330.6,414.3L331.1,412.8L331.3,412.1L331.3,412C331.5,411.4 331.6,410.7 331.8,410.1L331.8,409.6C338.1,432.9 345.8,452.8 354.5,468.1C371.7,498.4 389.5,504.8 401.4,504.8C419.1,504.8 435.7,491.3 449.6,465.7L465.3,471.3C466.9,471.9 468.5,472.2 470.2,472.2C474,472.2 477.7,470.7 480.5,467.8C484.4,463.7 485.6,457.8 483.4,452.5L468,414.9L414.3,283.7C411.7,277.4 405.2,273.9 398.5,275.2C391.8,276.5 387.1,282.2 387.1,289.1L387.1,361.1C387.1,365 390.2,368.1 394.1,368.1C398,368.1 401.1,365 401.1,361.1L401.1,289L401.3,289L401.3,289.1L455,420.3L470.4,457.9C470.4,458 470.5,458.1 470.3,458.2C470.2,458.3 470.1,458.3 470,458.3L448.6,450.7L406.6,435.7C403.3,434.5 401,431.3 401,427.8L401,395.5C401,391.6 397.9,388.5 394,388.5C390.1,388.5 387,391.6 387,395.5L387,427.8C387,437.3 393,445.7 401.9,448.9L436.2,461.1C425.3,480.5 413,491 401.3,491C376.6,491 352,446.1 338.5,376.6L338.5,376.5C333.9,353 330.8,327.5 329.1,300.8C328.2,286.3 327.7,271.4 327.7,256.6C327.7,220.4 330.3,185.7 335.5,153.4C348.1,74.9 374.5,22.2 401.3,22.2C419.3,22.2 437.7,46.2 451.7,88.1C466.7,133 475,192.9 475,256.6C475,296.8 471.6,336.5 465.2,371.5C464.5,375.3 467,379 470.8,379.6C471.2,379.7 471.7,379.7 472.1,379.7C475.4,379.7 478.4,377.3 479,374C485.6,338.2 489,297.6 489,256.6C489,191.4 480.5,129.9 465,83.6C449.4,34.4 426.8,7.5 402,7.5Z" style="fill:rgb(21,51,81);fill-rule:nonzero;"/>
                    </g>
                </g>
            </g>
        </g>
    </g>
</svg>
