<svg width="20" height="20" viewBox="0 0 20 20" fill="none" xmlns="http://www.w3.org/2000/svg">
<path d="M16.271 0C15.4866 0 14.7494 0.583149 14.1408 1.6851C13.7293 2.42912 13.3778 3.39031 13.1121 4.51237C12.4691 2.54575 11.5433 1.4438 10.4932 1.4438C9.67024 1.4438 8.91587 2.12347 8.30723 3.40639C7.75002 4.58476 7.35141 6.18942 7.15424 8.03941C7.10709 8.48582 7.0728 8.94832 7.04709 9.41484C7.02565 9.82103 7.01708 10.2312 7.01708 10.6374C7.01708 11.4619 7.05566 12.2823 7.13709 13.0746C7.13709 13.0746 7.13709 13.0746 7.13709 13.0786C7.14138 13.1229 7.14567 13.1671 7.14995 13.2073L7.15424 13.2676C7.15853 13.3079 7.16281 13.3521 7.1671 13.3923L7.17567 13.4567C7.17996 13.4969 7.18424 13.5411 7.18853 13.5813L7.1971 13.6417C7.20139 13.6859 7.20996 13.7261 7.21425 13.7704L7.21853 13.7985C7.23139 13.8991 7.24425 13.9996 7.2614 14.0961L7.26568 14.1162C7.26997 14.1564 7.27854 14.2007 7.28283 14.2409L7.2914 14.2972C7.29568 14.3374 7.30426 14.3776 7.30854 14.4179L7.31712 14.4782C7.32569 14.5184 7.32997 14.5546 7.33855 14.5948L7.34712 14.6511C7.35569 14.6913 7.35998 14.7316 7.36855 14.7718L7.37284 14.7959C7.38998 14.8844 7.40713 14.9729 7.42427 15.0613L7.43284 15.0975C7.44142 15.1297 7.4457 15.1619 7.45427 15.1981L7.45856 15.2101L7.47142 15.2705C7.47999 15.3067 7.48856 15.3429 7.49285 15.375L7.50571 15.4354C7.51428 15.4715 7.52285 15.5037 7.53143 15.5399L7.54428 15.6002L7.54857 15.6244C7.55714 15.6525 7.56143 15.6807 7.57 15.7048L7.57429 15.7289C7.59143 15.8053 7.61286 15.8818 7.63001 15.9582L7.64287 16.0105V16.0185L7.65573 16.0668V16.0708L7.66001 16.0909L7.6643 16.107L7.68144 16.1713C7.69002 16.2035 7.69859 16.2317 7.70716 16.2638L7.71145 16.2759V16.2799V16.2839L7.72002 16.3121V16.3161C7.72859 16.3443 7.73716 16.3764 7.74574 16.4046L7.76288 16.4569L7.76717 16.4689L7.77145 16.489V16.4931L7.7886 16.5494V16.5534L7.80146 16.5976L7.82289 16.67V16.674C7.82289 16.674 7.82289 16.674 7.82289 16.6781C7.82717 16.6901 7.83146 16.7062 7.83575 16.7183V16.7223C7.8186 16.7303 7.80146 16.7384 7.78431 16.7464C7.42856 16.8832 6.89278 16.6781 6.27557 16.1633C6.15127 16.0587 5.96267 16.0708 5.85123 16.1874C5.73979 16.304 5.75265 16.481 5.87695 16.5856C6.58417 17.1727 7.14138 17.3497 7.54857 17.3497C7.72859 17.3497 7.8829 17.3135 8.01148 17.2652C8.01577 17.2652 8.02005 17.2612 8.02434 17.2612L8.03291 17.2773C8.0372 17.2853 8.0372 17.2894 8.04148 17.2974C8.04577 17.3055 8.05006 17.3175 8.05434 17.3256C8.06292 17.3416 8.0672 17.3618 8.07577 17.3778L8.08435 17.3979L8.08863 17.414L8.09292 17.4221L8.09721 17.4301C8.10149 17.4382 8.10149 17.4422 8.10578 17.4462C8.11435 17.4663 8.12292 17.4904 8.1315 17.5106L8.13578 17.5226C8.14435 17.5427 8.15293 17.5588 8.15721 17.5789V17.5829L8.17007 17.6111C8.17436 17.6191 8.17436 17.6272 8.17864 17.6312L8.18293 17.6352C8.1915 17.6553 8.20007 17.6795 8.21293 17.6996V17.7036L8.23436 17.7478L8.23865 17.7599L8.24294 17.7679L8.26437 17.8162L8.26865 17.8283V17.8323C8.27723 17.8524 8.2858 17.8685 8.29437 17.8886V17.8926L8.30294 17.9127L8.3158 17.9369L8.32009 17.9489V17.9529L8.34581 18.0052L8.35866 18.0253L8.37152 18.0535L8.38867 18.0857L8.39724 18.1017L8.40153 18.1138L8.42724 18.1621L8.43153 18.1741C8.4401 18.1902 8.44867 18.2023 8.45296 18.2184V18.2224L8.45725 18.2264L8.48296 18.2707V18.2747C8.49582 18.2948 8.5044 18.3149 8.51725 18.335L8.5344 18.3672C8.5344 18.3672 8.5344 18.3672 8.5344 18.3712L8.54297 18.3833C8.55583 18.4034 8.56869 18.4235 8.57726 18.4436L8.58155 18.4516C8.58583 18.4597 8.59012 18.4637 8.59441 18.4717C8.57297 18.4798 8.55583 18.4919 8.5344 18.4999C7.87861 18.7533 6.84135 18.1822 5.69264 16.9355C4.45822 15.5922 3.24093 13.6376 2.27225 11.4257C1.35929 9.24995 0.754934 7.05811 0.626348 5.28856C0.506334 3.64368 0.814941 2.55379 1.47502 2.30042C1.96793 2.1114 2.69659 2.39292 3.52811 3.09672C4.41964 3.85281 5.35403 5.0191 6.24128 6.47496C6.32272 6.6117 6.50702 6.65594 6.64847 6.57953C6.7942 6.50312 6.84135 6.33018 6.75991 6.19747C5.84695 4.68932 4.86541 3.47476 3.93101 2.67846C2.90232 1.80977 1.97222 1.49608 1.24356 1.7776C0.317741 2.13553 -0.115166 3.39433 0.0262791 5.32475C0.159152 7.15463 0.780651 9.4068 1.77077 11.671C2.76088 13.9353 4.01245 15.9461 5.28974 17.3336C6.38701 18.524 7.41998 19.1514 8.26437 19.1474C8.45725 19.1474 8.64155 19.1152 8.81729 19.0469C8.87301 19.0267 8.92873 18.9986 8.98016 18.9704C8.98445 18.9785 8.99302 18.9865 8.99731 18.9946L9.02303 19.0267L9.02731 19.0308C9.02731 19.0308 9.02731 19.0308 9.02731 19.0348C9.02731 19.0388 9.0316 19.0388 9.0316 19.0428C9.04446 19.0589 9.05732 19.071 9.07017 19.0871C9.07017 19.0871 9.07017 19.0871 9.07017 19.0911L9.08732 19.1112L9.10446 19.1313L9.12161 19.1514L9.13018 19.1595C9.13875 19.1675 9.14733 19.1755 9.1559 19.1836C9.1559 19.1836 9.1559 19.1836 9.16018 19.1876C9.16447 19.1916 9.17304 19.1997 9.17733 19.2037L9.1859 19.2117L9.20305 19.2278L9.21591 19.2439L9.23305 19.26C9.24162 19.268 9.25019 19.2761 9.25877 19.2841L9.26305 19.2882C9.27591 19.3002 9.28877 19.3123 9.30163 19.3244L9.31449 19.3324L9.33592 19.3525C9.35306 19.3686 9.37021 19.3807 9.38735 19.3927L9.39164 19.3967C9.39593 19.4008 9.4045 19.4048 9.40878 19.4088C9.40878 19.4088 9.41307 19.4128 9.41736 19.4169C9.43879 19.4329 9.45593 19.449 9.47736 19.4611C9.48165 19.4651 9.48594 19.4651 9.49022 19.4691C9.49451 19.4732 9.4988 19.4732 9.50308 19.4772H9.50737L9.52451 19.4892L9.5288 19.4933C9.54166 19.5053 9.5588 19.5134 9.57166 19.5214C9.58023 19.5254 9.58452 19.5295 9.59309 19.5335L9.59738 19.5375L9.60166 19.5415L9.62309 19.5536C9.63167 19.5576 9.64024 19.5657 9.6531 19.5697C9.66167 19.5737 9.67453 19.5817 9.6831 19.5858L9.68739 19.5898C9.70025 19.5978 9.70882 19.6019 9.72168 19.6059C9.72596 19.6099 9.73025 19.6099 9.73882 19.6139C9.73882 19.6139 9.74311 19.6139 9.74311 19.6179C9.74739 19.622 9.75597 19.622 9.76025 19.626C9.76454 19.626 9.76454 19.63 9.76883 19.63H9.77311C9.78168 19.634 9.79026 19.634 9.79883 19.638C9.80312 19.638 9.8074 19.6421 9.81169 19.6421C9.82026 19.6461 9.83312 19.6461 9.84169 19.6461H9.84598C9.85884 19.6461 9.87169 19.6501 9.88455 19.6501C9.98742 19.6501 10.086 19.6019 10.1417 19.5134C10.2189 19.3927 10.1889 19.2399 10.0774 19.1554C10.0731 19.1514 10.0646 19.1474 10.0603 19.1434C10.0603 19.1434 10.0603 19.1434 10.056 19.1434C10.0517 19.1434 10.0517 19.1394 10.0474 19.1394C10.0431 19.1353 10.0389 19.1353 10.0346 19.1313C10.0346 19.1313 10.0303 19.1313 10.0303 19.1273C10.0303 19.1273 10.026 19.1273 10.026 19.1233C10.0217 19.1192 10.0174 19.1192 10.0089 19.1152L10.0003 19.1112C9.98314 19.1032 9.97028 19.0951 9.95313 19.083C9.94456 19.079 9.93599 19.075 9.92742 19.067C9.91027 19.0549 9.89313 19.0469 9.87598 19.0348L9.85455 19.0187C9.83312 19.0026 9.81169 18.9865 9.79026 18.9704C9.79026 18.9704 9.78597 18.9704 9.78597 18.9664L9.77311 18.9544C9.75168 18.9383 9.73454 18.9222 9.71311 18.9061L9.70025 18.898L9.68739 18.886C9.67024 18.8699 9.6531 18.8538 9.63595 18.8377C9.62738 18.8297 9.61881 18.8216 9.61024 18.8136C9.59309 18.7975 9.57595 18.7814 9.5588 18.7613C9.55023 18.7533 9.54166 18.7452 9.53737 18.7372C9.52023 18.7171 9.4988 18.697 9.48165 18.6769L9.49879 18.6809C9.49879 18.6809 9.49879 18.6809 9.49879 18.6769C9.47736 18.6527 9.45593 18.6246 9.4345 18.6004L9.41736 18.5803C9.39593 18.5522 9.3745 18.524 9.35306 18.4959L9.33163 18.4677C9.32735 18.4597 9.31877 18.4516 9.31449 18.4436L9.30592 18.4275L9.29734 18.4114C9.29306 18.4034 9.28877 18.3953 9.28448 18.3913L9.26305 18.3591C9.24591 18.331 9.22876 18.3069 9.21162 18.2787L9.19447 18.2506C9.17304 18.2184 9.15161 18.1822 9.13018 18.146L9.11304 18.1178C9.09161 18.0816 9.07446 18.0495 9.05303 18.0133L9.04874 18.0052L9.04017 17.9891V17.9851C9.02303 17.9489 9.00159 17.9127 8.98445 17.8765L8.96731 17.8403C8.95016 17.8082 8.93302 17.772 8.91587 17.7398V17.7358L8.89873 17.6996C8.88158 17.6594 8.86015 17.6191 8.84301 17.5789L8.83872 17.5709L8.82586 17.5427V17.5387C8.80872 17.4985 8.79157 17.4623 8.77443 17.4221L8.76157 17.3939C8.74014 17.3457 8.72299 17.2974 8.70156 17.2491L8.69727 17.2371V17.2331L8.69299 17.217C8.67584 17.1768 8.6587 17.1325 8.64155 17.0883L8.63727 17.0802V17.0762L8.62869 17.0481C8.61155 17.0038 8.59441 16.9596 8.57726 16.9153L8.56869 16.8872L8.5644 16.8751V16.8711C8.55154 16.8309 8.53868 16.7947 8.52154 16.7545L8.51297 16.7303L8.50011 16.6982V16.6941V16.6901C8.48296 16.6378 8.46582 16.5896 8.44867 16.5373C8.44867 16.5333 8.44439 16.5293 8.44439 16.5252L8.4401 16.5091C8.42296 16.4569 8.40581 16.4046 8.39295 16.3563V16.3523L8.38438 16.3282L8.38009 16.3201V16.3161C8.36295 16.2638 8.35009 16.2156 8.33295 16.1633L8.32437 16.1271C8.30723 16.0748 8.29437 16.0185 8.28151 15.9662L8.27294 15.926V15.922L8.26437 15.8818L8.25151 15.8335C8.23436 15.7611 8.21293 15.6887 8.19579 15.6123L8.1915 15.5882C8.18722 15.56 8.17864 15.5359 8.17436 15.5077L8.17007 15.4836L8.15721 15.4273C8.14864 15.3951 8.14007 15.3589 8.13578 15.3268L8.08435 15.2624C8.07577 15.2262 8.0672 15.194 8.06292 15.1579L8.05006 15.1015V15.0975L8.04577 15.0855C8.0372 15.0533 8.03291 15.0251 8.02434 14.993L8.01577 14.9568C7.99862 14.8723 7.98148 14.7838 7.96433 14.6954L7.96005 14.6752C7.95147 14.635 7.94719 14.5988 7.93862 14.5586L7.93004 14.5023C7.92147 14.4661 7.91718 14.4259 7.90861 14.3897L7.90004 14.3294C7.89575 14.2892 7.88718 14.253 7.8829 14.2127L7.87432 14.1564C7.87004 14.1162 7.86146 14.076 7.85718 14.0358L7.85289 14.0157C7.84003 13.9192 7.82717 13.8226 7.81432 13.7261L7.81003 13.698C7.80574 13.6578 7.79717 13.6135 7.79288 13.5733L7.78431 13.517C7.78003 13.4768 7.77574 13.4366 7.77145 13.3963L7.76288 13.336C7.75859 13.2958 7.75431 13.2556 7.75002 13.2154L7.74574 13.1591C7.74574 13.143 7.74145 13.1269 7.74145 13.1068L8.44867 11.7836L8.89873 10.9391L10.3517 8.20833C10.3903 8.13593 10.4589 8.12789 10.4889 8.12789C10.5189 8.12789 10.5875 8.13593 10.6261 8.20833L11.6976 10.2192C11.7705 10.3599 11.9505 10.4162 12.1005 10.3439C12.2505 10.2755 12.3105 10.1066 12.2334 9.96582L11.1618 7.95496C11.0333 7.71365 10.7761 7.56485 10.4889 7.56485C10.2017 7.56485 9.94456 7.71365 9.81597 7.95496L8.35866 10.6777L7.9129 11.5222L7.65573 12.0008C7.63001 11.5504 7.61715 11.0959 7.61715 10.6334C7.61715 10.2353 7.62572 9.8331 7.64715 9.43495C7.66858 8.98049 7.70287 8.53006 7.75002 8.09169C7.93862 6.32214 8.33295 4.73758 8.85586 3.62759C9.34878 2.57792 9.9317 1.99879 10.4889 1.99879C11.3847 1.99879 12.3063 3.48683 12.8463 5.79932C12.6234 7.11442 12.512 8.52202 12.512 9.98592C12.512 10.5932 12.5334 11.2045 12.572 11.7997C12.632 12.6845 12.7349 13.5411 12.8763 14.3455L11.2776 11.3493C11.149 11.108 10.8918 10.9592 10.6046 10.9592C10.3175 10.9592 10.0603 11.108 9.9317 11.3493L9.0616 12.9781L8.45296 14.1202C8.3801 14.261 8.4401 14.4299 8.58583 14.4983C8.62869 14.5184 8.67584 14.5264 8.71871 14.5264C8.83015 14.5264 8.93302 14.4701 8.98874 14.3696L9.59738 13.2274L10.4675 11.5986C10.5061 11.5262 10.5746 11.5182 10.6046 11.5182C10.6346 11.5182 10.7032 11.5262 10.7418 11.5986L12.8335 15.5198C12.8335 15.5279 12.8292 15.5359 12.8292 15.5439C12.8292 15.548 12.8292 15.552 12.8249 15.556L12.812 15.6083C12.8035 15.6364 12.7992 15.6606 12.7906 15.6887L12.7863 15.7008L12.7777 15.741L12.7563 15.8214V15.8255L12.7435 15.8697C12.7435 15.8697 12.7435 15.8697 12.7435 15.8737L12.7392 15.8938C12.7349 15.9139 12.7263 15.9381 12.722 15.9582V15.9662L12.7092 16.0145L12.7049 16.0346C12.6963 16.0587 12.692 16.0869 12.6834 16.111L12.6663 16.1713L12.6449 16.2397V16.2477L12.6406 16.2558V16.2598V16.2638L12.6234 16.3161L12.5977 16.3925L12.5849 16.4287L12.5806 16.4408L12.5591 16.5051L12.5463 16.5494L12.5291 16.5976V16.6016L12.5249 16.6137L12.512 16.6499L12.5077 16.662L12.5034 16.67C12.4949 16.6901 12.4906 16.7143 12.482 16.7344V16.7384L12.4606 16.7947V16.7987V16.8027L12.4563 16.8108C12.4477 16.8309 12.4434 16.851 12.4348 16.8711C12.4348 16.8711 12.4348 16.8711 12.4348 16.8751C12.4263 16.8952 12.422 16.9113 12.4134 16.9314C12.4048 16.9515 12.4006 16.9716 12.392 16.9877L12.3834 17.0078C12.3748 17.0239 12.3706 17.044 12.362 17.0601L12.3405 17.1205L12.3363 17.1285C12.3234 17.1566 12.3148 17.1848 12.302 17.2129L12.2977 17.229L12.2805 17.2652V17.2693L12.2677 17.3014V17.3054L12.2505 17.3497V17.3537L12.2463 17.3658L12.2205 17.4221C12.212 17.4422 12.2034 17.4623 12.1948 17.4824C12.1862 17.5025 12.1777 17.5226 12.1691 17.5427C12.1605 17.5628 12.152 17.5789 12.1434 17.599C12.1348 17.6151 12.1262 17.6312 12.122 17.6473L12.1177 17.6594C12.1091 17.6754 12.1048 17.6915 12.0962 17.7036V17.7076V17.7116V17.7157L12.0834 17.7438L12.0748 17.7639C12.0577 17.7961 12.0448 17.8243 12.0277 17.8564L12.0148 17.8765L12.0019 17.9007V17.9047C11.9934 17.9208 11.9848 17.9409 11.9719 17.957L11.9676 17.965L11.9462 18.0052C11.9376 18.0253 11.9248 18.0414 11.9162 18.0575C11.9076 18.0736 11.8991 18.0857 11.8905 18.0977C11.8819 18.1138 11.8691 18.1339 11.8605 18.15L11.8562 18.154C11.8476 18.1661 11.8433 18.1782 11.8348 18.1902C11.8219 18.2103 11.8091 18.2304 11.7962 18.2465V18.2506L11.7876 18.2666L11.7748 18.2867C11.7576 18.3109 11.7405 18.339 11.7233 18.3632L11.7019 18.3913C11.689 18.4074 11.6762 18.4275 11.6633 18.4436L11.6419 18.4717C11.629 18.4878 11.6205 18.5039 11.6076 18.516L11.5819 18.5482C11.569 18.5642 11.5605 18.5763 11.5476 18.5924L11.5262 18.6206C11.5133 18.6366 11.4962 18.6527 11.4833 18.6688L11.479 18.6728L11.4747 18.6809L11.4619 18.697C11.4447 18.7171 11.4276 18.7332 11.4104 18.7533L11.3933 18.7694C11.3804 18.7814 11.3676 18.7975 11.3504 18.8096L11.329 18.8297C11.3161 18.8417 11.3033 18.8538 11.2904 18.8619C11.2819 18.8699 11.2733 18.8739 11.269 18.882C11.2561 18.894 11.2433 18.9021 11.2304 18.9141L11.209 18.9302C11.1918 18.9423 11.1747 18.9544 11.1618 18.9664C11.1618 18.9664 11.1576 18.9664 11.1576 18.9704L11.149 18.9785H11.1447C11.1318 18.9865 11.1233 18.9946 11.1104 19.0026C10.9775 19.0911 10.9432 19.268 11.0418 19.3967C11.1018 19.4732 11.1918 19.5134 11.2861 19.5134C11.3461 19.5134 11.4062 19.4973 11.4619 19.4611C11.479 19.449 11.4919 19.441 11.509 19.4289L11.5219 19.4209L11.5305 19.4169C11.5305 19.4169 11.5305 19.4169 11.5347 19.4128C11.5433 19.4048 11.5562 19.3967 11.5647 19.3887C11.569 19.3847 11.5776 19.3807 11.5819 19.3766C11.5819 19.3766 11.5862 19.3726 11.5905 19.3726L11.599 19.3646L11.6162 19.3525C11.6248 19.3445 11.6376 19.3364 11.6462 19.3284L11.6505 19.3244L11.6676 19.3083L11.6719 19.3042L11.6848 19.2922L11.7062 19.2721L11.7276 19.256C11.7362 19.2479 11.7448 19.2399 11.7533 19.2319L11.7705 19.2158L11.7748 19.2117L11.7833 19.2037C11.7919 19.1957 11.8005 19.1876 11.8091 19.1796C11.8176 19.1715 11.8262 19.1635 11.8348 19.1554L11.8433 19.1474L11.8605 19.1313C11.8734 19.1152 11.8905 19.1032 11.9034 19.0871C11.9034 19.0871 11.9034 19.0871 11.9076 19.083L11.9162 19.075L11.9205 19.071L11.9248 19.067L11.9291 19.0589V19.0549C11.9376 19.0428 11.9505 19.0308 11.9591 19.0187C11.9591 19.0147 11.9634 19.0147 11.9634 19.0107L11.9805 18.9946L11.9848 18.9865L11.9977 18.9704L12.0019 18.9624C12.0105 18.9503 12.0191 18.9423 12.0277 18.9302L12.0405 18.9141L12.0448 18.9061V18.9021L12.0619 18.8779L12.0791 18.8538L12.0962 18.8297L12.122 18.7975L12.1262 18.7935L12.1391 18.7734L12.152 18.7533C12.1648 18.7372 12.1777 18.7211 12.1862 18.701L12.1991 18.6809L12.2034 18.6728C12.2205 18.6487 12.2334 18.6246 12.2505 18.6045L12.2591 18.5924L12.272 18.5723C12.2805 18.5562 12.2934 18.5401 12.302 18.524L12.3191 18.4959L12.3363 18.4717L12.3405 18.4677L12.362 18.4356L12.3706 18.4195L12.3834 18.3953L12.4048 18.3632L12.4177 18.339L12.4348 18.3109V18.3069L12.4563 18.2707L12.4606 18.2626L12.4691 18.2465L12.4863 18.2184L12.4991 18.1983C12.5034 18.1862 12.512 18.1782 12.5163 18.1661L12.5334 18.1339L12.5377 18.1259V18.1219C12.5506 18.0937 12.5677 18.0656 12.5806 18.0374L12.5849 18.0294L12.602 17.9932L12.6063 17.9891C12.6106 17.9811 12.6149 17.969 12.6192 17.961L12.6277 17.9409L12.6406 17.9127L12.6534 17.8806L12.6749 17.8403L12.6877 17.8082L12.7006 17.78L12.722 17.7318L12.7306 17.7116V17.7076L12.7435 17.6795L12.7563 17.6513V17.6473L12.7692 17.6151L12.7777 17.595L12.7949 17.5588L12.7992 17.5508L12.8163 17.5065V17.5025L12.8206 17.4904L12.8377 17.4502L12.842 17.4382V17.4341C12.8506 17.41 12.8592 17.3859 12.872 17.3618C12.8763 17.3577 12.8763 17.3497 12.8806 17.3457V17.3416L12.8849 17.3336L12.8892 17.3256L12.902 17.2934V17.2894L12.9235 17.2371V17.2331L12.932 17.2089L12.9363 17.2009L12.9492 17.1647L12.962 17.1285L12.9792 17.0843V17.0802L12.9878 17.0601V17.0561L13.0092 16.9958L13.0178 16.9676L13.0349 16.9234C13.0349 16.9234 13.0349 16.9234 13.0349 16.9194L13.0563 16.855L13.0692 16.8148V16.8108L13.0906 16.7505L13.0949 16.7384C13.0992 16.7223 13.1078 16.7022 13.1121 16.6861L13.1164 16.674C13.1206 16.658 13.1292 16.6378 13.1335 16.6218L13.1378 16.6137L13.1464 16.5815L13.1678 16.5132L13.1849 16.4569L13.1892 16.4408V16.4327V16.4287L13.2106 16.3603L13.2149 16.3483L13.2192 16.3362L13.2235 16.3242L13.2321 16.3L13.2407 16.2719V16.2678C13.2492 16.2437 13.2535 16.2156 13.2621 16.1914V16.1834V16.1794V16.1713C13.5321 17.1084 13.8622 17.9087 14.2351 18.524C14.9723 19.7426 15.7352 20 16.2453 20C17.0039 20 17.7155 19.4571 18.3112 18.4275L18.9842 18.6527C19.0527 18.6769 19.1213 18.6889 19.1942 18.6889C19.3571 18.6889 19.5157 18.6286 19.6357 18.512C19.8028 18.3471 19.8543 18.1098 19.76 17.8966L19.0999 16.3845L16.7982 11.108C16.6868 10.8546 16.4082 10.7139 16.121 10.7661C15.8338 10.8184 15.6324 11.0477 15.6324 11.3252V14.2208C15.6324 14.3776 15.7652 14.5023 15.9324 14.5023C16.0996 14.5023 16.2324 14.3776 16.2324 14.2208V11.3252V11.3211C16.2367 11.3211 16.2367 11.3211 16.241 11.3211V11.3252L18.5427 16.6016L19.2028 18.1138C19.2028 18.1178 19.2071 18.1219 19.1985 18.1259C19.1942 18.1299 19.1899 18.1299 19.1856 18.1299L18.2684 17.8243L16.4682 17.221C16.3267 17.1727 16.2281 17.044 16.2281 16.9033V15.6043C16.2281 15.4474 16.0953 15.3227 15.9281 15.3227C15.7609 15.3227 15.6281 15.4474 15.6281 15.6043V16.9033C15.6281 17.2853 15.8852 17.6232 16.2667 17.7519L17.7369 18.2425C17.2697 19.0227 16.7425 19.445 16.241 19.445C15.1823 19.445 14.1279 17.6393 13.5493 14.8442C13.5493 14.8442 13.5493 14.8442 13.5493 14.8401C13.3521 13.895 13.2192 12.8695 13.1464 11.7957C13.1078 11.2125 13.0863 10.6133 13.0863 10.0181C13.0863 8.56224 13.1978 7.1667 13.4207 5.86769C13.9607 2.71064 15.0923 0.591192 16.241 0.591192C17.0125 0.591192 17.8012 1.5564 18.4012 3.2415C19.0442 5.04726 19.3999 7.45626 19.3999 10.0181C19.3999 11.6348 19.2542 13.2315 18.9799 14.6391C18.9499 14.7919 19.057 14.9407 19.2199 14.9648C19.2371 14.9688 19.2585 14.9688 19.2756 14.9688C19.4171 14.9688 19.5457 14.8723 19.5714 14.7396C19.8543 13.2998 20 11.667 20 10.0181C20 7.39594 19.6357 4.92258 18.9713 3.06053C18.3027 1.08184 17.334 0 16.271 0Z" fill="#153351"/>
</svg>
