<?xml version="1.0" encoding="UTF-8" standalone="no"?>
<!DOCTYPE svg PUBLIC "-//W3C//DTD SVG 1.1//EN" "http://www.w3.org/Graphics/SVG/1.1/DTD/svg11.dtd">
<svg width="100%" height="100%" viewBox="0 0 50 50" version="1.1" xmlns="http://www.w3.org/2000/svg" xmlns:xlink="http://www.w3.org/1999/xlink" xml:space="preserve" xmlns:serif="http://www.serif.com/" style="fill-rule:evenodd;clip-rule:evenodd;stroke-linecap:round;stroke-linejoin:round;stroke-miterlimit:2;">
    <g transform="matrix(1,0,0,1,-198.744,-251)">
        <g id="prof" transform="matrix(1,0,0,1,-401.256,251)">
            <rect x="600" y="0" width="50" height="50" style="fill:none;"/>
            <g id="noun_Surfing_2588439" transform="matrix(0.818953,0,0,0.818953,625.064,30.9171)">
                <g transform="matrix(1,0,0,1,-32,-40)">
                    <g>
                        <path d="M14.622,11.547L15.687,9.521C15.322,10.192 14.967,10.868 14.622,11.547Z" style="fill:none;fill-rule:nonzero;stroke:rgb(21,51,81);stroke-width:1.5px;"/>
                        <path d="M13.629,13.572C13.353,14.158 13.083,14.746 12.821,15.338C11.758,17.74 10.813,20.193 9.991,22.688" style="fill:none;fill-rule:nonzero;stroke:rgb(21,51,81);stroke-width:1.5px;"/>
                        <path d="M46.933,19.82C46.973,19.162 47,18.494 47,17.81L47,16C47.891,16 48.654,16.595 48.909,17.407C48.968,17.595 49,17.794 49,18C49,19.097 48.097,20 47,20L46.927,20C46.931,19.939 46.929,19.878 46.933,19.817L46.933,19.82ZM45,5.913C46.129,6.027 46.999,6.988 47,8.123L47,11.767C46.26,10.483 45.592,9.159 45,7.8L45,5.913ZM39.171,4C40.579,3.996 41.941,4.506 43,5.434L43,7L41.481,7L39.081,4L39.171,4ZM35,4L36.519,4L38.919,7L36.419,7L33.65,4.236C34.083,4.08 34.54,4 35,4ZM31.979,5.393L33.586,7L31.126,7C31.283,6.406 31.575,5.856 31.979,5.393ZM31,11C30.998,10.319 31.112,9.643 31.336,9L32.515,9C32.077,10.003 31.571,10.975 31,11.909L31,11ZM31,15.336C32.533,13.414 33.779,11.28 34.7,9L43.344,9C44.321,11.246 45.547,13.376 47,15.348L47,17.971C46.995,18.76 46.956,19.556 46.891,20.351C46.875,20.535 46.867,20.725 46.848,20.906C46.751,21.925 46.599,22.938 46.394,23.941C46.1,25.42 45.368,26.776 44.294,27.834C44.126,28.002 43.949,28.151 43.779,28.296C40.811,30.723 36.44,30.521 33.708,27.831C33.612,27.739 33.521,27.642 33.436,27.54C32.885,26.946 32.438,26.264 32.115,25.521C31.892,25.014 31.724,24.484 31.615,23.941C31.415,22.962 31.264,21.974 31.165,20.98L31.165,20.88C31.149,20.732 31.142,20.58 31.129,20.431C31.099,20.076 31.067,19.72 31.049,19.364L31.049,19.316C31.009,18.811 31,18.3 31,17.8L31,15.336ZM31,15.997L31,17.8C31,18.339 31.01,18.887 31.04,19.367L31.04,19.507L31.067,19.867L31.067,19.997L31,19.997C29.903,19.997 29,19.094 29,17.997C29,16.9 29.903,15.997 31,15.997ZM18,4.126C19.372,3.766 20.763,4.361 21.111,4.557C21.754,4.924 22.29,5.452 22.668,6.088C24.275,8.824 28.107,16.252 28.107,16.252C28.107,16.252 28.861,18.072 28.963,18.018M18,24.22L29,17.997C29.101,18.093 28.618,17.894 29,17.997M17.184,34.736L32.396,26.096M5.738,30.86C5.918,30.119 6.686,26.796 6.885,26.063C8.802,19.059 11.643,12.341 15.333,6.087C15.709,5.452 16.244,4.926 16.885,4.56C17.234,4.363 17.61,4.217 18,4.126L18,23.945M4.178,41.916C4.248,41.216 4.583,37.892 4.669,37.203C4.674,37.164 4.677,37.123 4.682,37.084C4.8,36.194 4.927,35.315 5.073,34.423L5.073,34.4C5.168,33.817 5.273,33.234 5.38,32.651C5.487,32.068 5.61,31.464 5.738,30.86L18,24.22L18,34.943M38.83,57.236L25.9,60L20,60C19.769,60.001 19.539,59.958 19.324,59.874C18.529,59.598 17.995,58.841 18,58L18,54M38,49.561L60,51.939L60,58C60,59.097 59.097,60 58,60L52.1,60L28.165,55.014L22.165,54.014C22.11,54.005 22.055,54 22,54L18,54L18,44M60,45L60,51.936M44,28.575L44,34C44,34.479 44.345,34.895 44.816,34.983L55.926,37.062C58.281,37.506 60.002,39.583 60,41.98L60,45L55,45C54.845,44.998 54.692,45.033 54.553,45.1L53,45.882L53,44L51,44L51,46.882L48.734,48.015L40,49.567L40,45L38,45L38,49.561L29.265,48.015L27,46.882L27,44L25,44L25,45.882L23.447,45.105C23.308,45.036 23.155,45 23,45L18,45L18,41.98C17.998,40.555 18.608,39.196 19.673,38.249C20.346,37.637 21.178,37.226 22.073,37.063L33.183,34.983C33.655,34.895 34,34.48 34,34L34,28.575" style="fill:none;fill-rule:nonzero;stroke:rgb(21,51,81);stroke-width:1.5px;"/>
                        <path d="M4,62L4,47.55C4,45.594 4.079,43.633 4.222,41.681L18,34.217L18,41.094" style="fill:none;fill-rule:nonzero;stroke:rgb(21,51,81);stroke-width:1.5px;"/>
                        <path d="M34.5,17.7C35.323,17.7 36,17.023 36,16.2C36,15.377 35.323,14.7 34.5,14.7C33.677,14.7 33,15.377 33,16.2C33,17.023 33.677,17.7 34.5,17.7Z" style="fill:white;fill-rule:nonzero;stroke:rgb(21,51,81);stroke-width:1.2px;stroke-linecap:butt;"/>
                        <path d="M43.5,17.7C44.323,17.7 45,17.023 45,16.2C45,15.377 44.323,14.7 43.5,14.7C42.677,14.7 42,15.377 42,16.2C42,17.023 42.677,17.7 43.5,17.7Z" style="fill:white;fill-rule:nonzero;stroke:rgb(21,51,81);stroke-width:1.2px;stroke-linecap:butt;"/>
                        <path d="M37,24L38.861,24C40.48,24.03 42.079,23.638 43.5,22.863" style="fill-rule:nonzero;stroke:rgb(21,51,81);stroke-width:1.5px;"/>
                        <path d="M27.737,39.965L38.737,42.965C38.909,43.012 39.091,43.012 39.263,42.965L50.263,39.965" style="fill:none;fill-rule:nonzero;stroke:rgb(21,51,81);stroke-width:1.5px;"/>
                    </g>
                </g>
            </g>
        </g>
    </g>
</svg>
