<svg width="20" height="20" viewBox="0 0 20 20" fill="none" xmlns="http://www.w3.org/2000/svg">
<path d="M4.20728 3.18232L4.80161 3.48432C4.91272 3.26321 5.02816 3.04388 5.14794 2.82632L4.56228 2.50699C4.4405 2.73077 4.32216 2.95588 4.20728 3.18232Z" fill="#153351"/>
<path d="M2.66382 6.89599L3.29715 7.10399C3.63019 6.09358 4.02504 5.1046 4.47948 4.14266L3.87648 3.85733C3.41046 4.84445 3.00548 5.85925 2.66382 6.89599Z" fill="#153351"/>
<path d="M18.098 11.0333L14.6667 10.39V8.97032C15.063 8.54393 15.3341 8.01648 15.45 7.44599C15.5043 7.17699 15.543 6.92033 15.575 6.66666H15.6667C16.0203 6.66666 16.3594 6.52618 16.6095 6.27614C16.8595 6.02609 17 5.68695 17 5.33333C17 4.97971 16.8595 4.64057 16.6095 4.39052C16.3594 4.14047 16.0203 4 15.6667 4V2.041C15.6675 1.84378 15.6265 1.64861 15.5464 1.46841C15.4662 1.28822 15.3487 1.1271 15.2016 0.995702C15.0545 0.864308 14.8812 0.765638 14.6931 0.706216C14.5051 0.646794 14.3065 0.627974 14.1107 0.651002C13.6362 0.230772 13.0241 -0.000854081 12.3903 2.36659e-06H11C10.4697 0.000531843 9.96133 0.211415 9.58637 0.586373C9.21141 0.96133 9.00053 1.46973 9 2C9.00023 2.04627 9.0102 2.09197 9.02926 2.13412C9.04833 2.17628 9.07607 2.21395 9.11067 2.24467C9.03819 2.48993 9.00093 2.74425 9 3V4C8.99467 4 8.98967 4.00166 8.98467 4.00166C8.5367 2.98021 8.02893 1.98605 7.464 1.02433C7.27914 0.712351 7.01646 0.453695 6.70167 0.273669C6.38504 0.0970915 6.02853 0.00440007 5.666 0.00440007C5.30347 0.00440007 4.94696 0.0970915 4.63033 0.273669C4.31616 0.453346 4.05404 0.711556 3.86967 1.023C2.60976 3.15909 1.63969 5.45333 0.985 7.84533C0.733544 8.76746 0.530269 9.70205 0.376 10.6453C0.373667 10.6607 0.370333 10.6787 0.367667 10.6927V10.701C0.317333 10.986 0.273333 11.2847 0.234333 11.61C0.078802 12.7948 0.000525519 13.9884 0 15.1833V20H0.666667V15.1833C0.666667 14.5313 0.693 13.8777 0.740667 13.227L5.33333 10.739V11.698C4.90639 12.1326 4.66702 12.7174 4.66667 13.3267V18.6666C4.6653 18.9407 4.74925 19.2083 4.90688 19.4325C5.0645 19.6567 5.28799 19.8262 5.54633 19.9176C5.69114 19.973 5.84498 20.0009 6 20H8C8.0224 19.9999 8.04474 19.9975 8.06667 19.993L12.3333 19.104L16.6 19.993C16.6219 19.9975 16.6443 19.9999 16.6667 20H18.6667C19.0203 20 19.3594 19.8595 19.6095 19.6095C19.8595 19.3594 20 19.0203 20 18.6666V13.3267C20 12.7826 19.81 12.2557 19.4627 11.8369C19.1154 11.4181 18.6327 11.1339 18.098 11.0333ZM15.6443 5.93999C15.6577 5.72066 15.6667 5.49799 15.6667 5.27V4.66666C15.8435 4.66666 16.013 4.7369 16.1381 4.86192C16.2631 4.98695 16.3333 5.15652 16.3333 5.33333C16.3333 5.51014 16.2631 5.67971 16.1381 5.80473C16.013 5.92976 15.8435 5.99999 15.6667 5.99999H15.6423C15.6437 5.97966 15.643 5.95933 15.6443 5.93899V5.93999ZM14.3333 1.30433C14.516 1.32275 14.6853 1.40829 14.8084 1.54438C14.9316 1.68048 14.9999 1.85745 15 2.041V3.25566C14.7532 2.82772 14.5306 2.38625 14.3333 1.93333V1.30433ZM12.3903 0.666668C12.8598 0.665269 13.3136 0.835233 13.6667 1.14467V1.66667H13.1603L12.3603 0.666668H12.3903ZM11 0.666668H11.5063L12.3063 1.66667H11.473L10.55 0.745335C10.6944 0.69342 10.8466 0.666807 11 0.666668ZM9.993 1.131L10.5287 1.66667H9.70867C9.76111 1.46867 9.85839 1.28539 9.993 1.131ZM9.66667 3C9.66599 2.77304 9.70386 2.54761 9.77867 2.33333H10.1717C10.0256 2.66766 9.85685 2.99163 9.66667 3.303V3ZM9.66667 4.44533C10.1777 3.80464 10.5931 3.09324 10.9 2.33333H13.7813C14.107 3.0821 14.5158 3.79189 15 4.44933V5.26666C15 5.286 15 5.30433 15 5.32366C14.9983 5.58666 14.9853 5.85199 14.9637 6.11699C14.9583 6.17833 14.9557 6.24166 14.9493 6.30199C14.9169 6.64167 14.8664 6.97937 14.798 7.31366C14.7001 7.80662 14.4562 8.25874 14.098 8.61132C14.042 8.66732 13.983 8.71699 13.9263 8.76532C13.4461 9.15796 12.8378 9.35931 12.2182 9.3307C11.5985 9.30209 11.0113 9.04554 10.5693 8.61032C10.5373 8.57973 10.507 8.54734 10.4787 8.51332C10.2949 8.31549 10.146 8.08793 10.0383 7.84033C9.96394 7.6713 9.90806 7.49471 9.87167 7.31366C9.80489 6.98743 9.75483 6.658 9.72167 6.32666C9.72167 6.31499 9.72167 6.30366 9.72167 6.29333C9.71633 6.24399 9.714 6.19333 9.70967 6.14366C9.69967 6.02533 9.689 5.90666 9.683 5.78799V5.772C9.66967 5.60366 9.66667 5.43333 9.66667 5.26666V4.44533ZM9 4.66666V5.26666C9 5.44633 9.00333 5.629 9.01333 5.789C9.01333 5.797 9.01333 5.82799 9.01333 5.83566L9.02233 5.95566C9.02233 5.97 9.02233 5.98466 9.02233 5.99899H9C8.82319 5.99899 8.65362 5.92876 8.5286 5.80373C8.40357 5.67871 8.33333 5.50914 8.33333 5.33233C8.33333 5.15552 8.40357 4.98595 8.5286 4.86092C8.65362 4.7359 8.82319 4.66566 9 4.66566V4.66666ZM6 0.708335C6.12963 0.738575 6.25432 0.787058 6.37033 0.852335C6.5846 0.974637 6.76344 1.15049 6.88933 1.36267C7.42511 2.27462 7.90802 3.21661 8.33567 4.184C8.13308 4.29999 7.9646 4.46727 7.84716 4.66902C7.72972 4.87077 7.66747 5.09989 7.66667 5.33333C7.66667 5.35 7.671 5.36666 7.67167 5.382L6 6.28733V0.708335ZM6 7.04533L7.86967 6.03333C7.98843 6.22652 8.15463 6.38614 8.35247 6.49699C8.55031 6.60784 8.77322 6.66625 9 6.66666H9.09167C9.125 6.92099 9.16233 7.17799 9.21667 7.44733C9.2433 7.57421 9.27736 7.69943 9.31867 7.82233L6 9.61999V7.04533ZM6 10.3787L9.594 8.43199C9.7017 8.61846 9.82946 8.79261 9.975 8.95132C9.98233 8.96032 9.992 8.96899 10 8.97799V10.39L6.57033 11.0333C6.3729 11.0694 6.18112 11.1315 6 11.218V10.3787ZM1.62833 8.02099C2.2673 5.68629 3.21429 3.44706 4.44433 1.36233C4.56974 1.15069 4.74802 0.975289 4.96167 0.853335C5.07804 0.787664 5.20319 0.73895 5.33333 0.708668V6.64833L1.439 8.75799C1.499 8.5111 1.56211 8.26544 1.62833 8.02099ZM0.811333 12.4307C0.834667 12.1973 0.861 11.964 0.889667 11.7343C0.891333 11.7213 0.892333 11.7077 0.894 11.6947C0.933333 11.398 0.975667 11.105 1.02433 10.8077V10.8C1.056 10.6057 1.091 10.4113 1.12667 10.217C1.16233 10.0227 1.20333 9.82132 1.246 9.61999L5.33333 7.40666V9.98099L0.811333 12.4307ZM7.96667 19.3333H6C5.92291 19.3337 5.84644 19.3195 5.77467 19.2913C5.64513 19.2462 5.53293 19.1618 5.45379 19.0498C5.37465 18.9378 5.33253 18.8038 5.33333 18.6666V18H6.639L8.59867 18.3263L10.6987 18.7636L7.96667 19.3333ZM19.3333 17.3333V18.6666C19.3333 18.8435 19.2631 19.013 19.1381 19.1381C19.013 19.2631 18.8435 19.3333 18.6667 19.3333H16.7L8.72167 17.6713L6.72167 17.338C6.70349 17.3349 6.6851 17.3334 6.66667 17.3333H5.33333V15H6.92133L8.851 15.9666C8.8911 15.986 8.93458 15.9973 8.979 16L12.3333 16.209H12.347L19.3333 16.6463V17.3333ZM19.3333 15.9786L16.1823 15.7816L17.7453 15H19.3333V15.9786ZM19.3333 14.3333H17.6667C17.6151 14.3328 17.5641 14.3442 17.5177 14.3666L17 14.6273V14H16.3333V14.9606L15.578 15.3383L12.6667 15.5223V14.3333H12V15.5203L9.08833 15.3383L8.33333 14.9606V14H7.66667V14.6273L7.149 14.3683C7.10272 14.3453 7.05171 14.3333 7 14.3333H5.33333V13.3267C5.33304 13.0917 5.3826 12.8594 5.47873 12.645C5.57486 12.4306 5.71538 12.2391 5.891 12.083C6.11534 11.8788 6.39255 11.7418 6.691 11.6877L10.3943 10.9943C10.4708 10.9801 10.5399 10.9395 10.5897 10.8797C10.6394 10.8198 10.6667 10.7445 10.6667 10.6667V9.52499C11.1671 9.83568 11.7443 10.0003 12.3333 10.0003C12.9223 10.0003 13.4996 9.83568 14 9.52499V10.6667C14 10.7444 14.0272 10.8197 14.0769 10.8796C14.1265 10.9394 14.1956 10.98 14.272 10.9943L17.9753 11.6873C18.3573 11.7593 18.7022 11.9626 18.9502 12.2619C19.1981 12.5613 19.3337 12.9379 19.3333 13.3267V14.3333Z" fill="#153351"/>
<path d="M10.8333 5.23334C10.9321 5.23334 11.0288 5.20401 11.111 5.14907C11.1933 5.09413 11.2573 5.01604 11.2952 4.92468C11.333 4.83332 11.3429 4.73278 11.3236 4.63579C11.3044 4.5388 11.2567 4.44971 11.1868 4.37978C11.1169 4.30986 11.0278 4.26224 10.9308 4.24294C10.8338 4.22365 10.7333 4.23355 10.6419 4.2714C10.5505 4.30924 10.4725 4.37333 10.4175 4.45555C10.3626 4.53778 10.3333 4.63445 10.3333 4.73334C10.3333 4.86595 10.3859 4.99312 10.4797 5.08689C10.5735 5.18066 10.7006 5.23334 10.8333 5.23334Z" fill="#153351"/>
<path d="M13.8333 5.23334C13.9321 5.23334 14.0288 5.20401 14.111 5.14907C14.1933 5.09413 14.2573 5.01604 14.2952 4.92468C14.333 4.83332 14.3429 4.73278 14.3236 4.63579C14.3044 4.5388 14.2567 4.44971 14.1868 4.37978C14.1169 4.30986 14.0278 4.26224 13.9308 4.24294C13.8338 4.22365 13.7333 4.23355 13.6419 4.2714C13.5505 4.30924 13.4725 4.37333 13.4175 4.45555C13.3626 4.53778 13.3333 4.63445 13.3333 4.73334C13.3333 4.86595 13.3859 4.99312 13.4797 5.08689C13.5735 5.18066 13.7006 5.23334 13.8333 5.23334Z" fill="#153351"/>
<path d="M13.8334 6.95433L13.5001 6.379C13.1268 6.57662 12.7093 6.67564 12.2871 6.66666H11.6667V7.33333H12.2871C12.8267 7.34325 13.3596 7.21264 13.8334 6.95433Z" fill="#153351"/>
<path d="M12.3334 12.988L8.75444 12.0117L8.5791 12.655L12.2458 13.655C12.3032 13.6705 12.3637 13.6705 12.4211 13.655L16.0878 12.655L15.9124 12.0117L12.3334 12.988Z" fill="#153351"/>
</svg>
