<svg width="40" height="40" viewBox="0 0 40 40" fill="none" xmlns="http://www.w3.org/2000/svg">
<path d="M18.3203 24.8233V5.07812C18.3203 2.27805 16.0423 0 13.2422 0C10.4421 0 8.16406 2.27805 8.16406 5.07812V24.8233C6.04914 26.4148 4.80469 28.8884 4.80469 31.5625C4.80469 36.2149 8.58969 40 13.2422 40C17.8947 40 21.6797 36.2149 21.6797 31.5625C21.6797 28.8884 20.4352 26.4148 18.3203 24.8233V24.8233ZM13.2422 37.6562C9.88203 37.6562 7.14844 34.9226 7.14844 31.5625C7.14844 29.4717 8.20203 27.5504 9.9668 26.4229C10.3038 26.2076 10.5078 25.8353 10.5078 25.4353V5.07812C10.5078 3.57039 11.7345 2.34375 13.2422 2.34375C14.7499 2.34375 15.9766 3.57039 15.9766 5.07812V25.4354C15.9766 25.8353 16.1805 26.2077 16.5176 26.423C18.2823 27.5504 19.3359 29.4717 19.3359 31.5625C19.3359 34.9226 16.6023 37.6562 13.2422 37.6562V37.6562Z" fill="black"/>
<path d="M14.4141 28.2484V5.07812C14.4141 4.43094 13.8894 3.90625 13.2422 3.90625C12.595 3.90625 12.0703 4.43094 12.0703 5.07812V28.2484C10.7063 28.7322 9.72656 30.0348 9.72656 31.5624C9.72656 33.5009 11.3037 35.078 13.2422 35.078C15.1807 35.078 16.7578 33.5009 16.7578 31.5624C16.7578 30.0348 15.7781 28.7322 14.4141 28.2484ZM13.2422 32.7344C12.596 32.7344 12.0703 32.2087 12.0703 31.5625C12.0703 30.9163 12.596 30.3906 13.2422 30.3906C13.8884 30.3906 14.4141 30.9163 14.4141 31.5625C14.4141 32.2087 13.8884 32.7344 13.2422 32.7344Z" fill="black"/>
<path d="M21.8359 6.2207C21.1887 6.2207 20.6641 6.74539 20.6641 7.39258C20.6641 8.03977 21.1887 8.56445 21.8359 8.56445C24.5014 8.56445 26.67 10.733 26.67 13.3986C26.67 16.0641 24.5014 18.2327 21.8359 18.2327C21.1887 18.2327 20.6641 18.7573 20.6641 19.4045C20.6641 20.0517 21.1887 20.5764 21.8359 20.5764C25.7937 20.5764 29.0137 17.3564 29.0137 13.3986C29.0137 9.44062 25.7937 6.2207 21.8359 6.2207V6.2207Z" fill="black"/>
<path d="M21.8359 4.37504C22.4831 4.37504 23.0078 3.85036 23.0078 3.20317V1.172C23.0078 0.52481 22.4831 0.00012207 21.8359 0.00012207C21.1887 0.00012207 20.6641 0.52481 20.6641 1.172V3.20317C20.6641 3.85036 21.1887 4.37504 21.8359 4.37504Z" fill="black"/>
<path d="M21.8359 22.422C21.1887 22.422 20.6641 22.9467 20.6641 23.5939V25.625C20.6641 26.2722 21.1887 26.7969 21.8359 26.7969C22.4831 26.7969 23.0078 26.2722 23.0078 25.625V23.5939C23.0078 22.9467 22.4831 22.422 21.8359 22.422Z" fill="black"/>
<path d="M34.0233 12.2267H31.9922C31.345 12.2267 30.8203 12.7514 30.8203 13.3986C30.8203 14.0457 31.345 14.5704 31.9922 14.5704H34.0233C34.6705 14.5704 35.1952 14.0457 35.1952 13.3986C35.1952 12.7514 34.6705 12.2267 34.0233 12.2267Z" fill="black"/>
<path d="M29.0452 7.36121C29.3451 7.36121 29.6451 7.24684 29.8738 7.01793L31.3101 5.58168C31.7677 5.12403 31.7677 4.38207 31.3101 3.92442C30.8525 3.46676 30.1104 3.46676 29.6528 3.92442L28.2165 5.36067C27.7589 5.81832 27.7589 6.56028 28.2165 7.01793C28.4454 7.24676 28.7453 7.36121 29.0452 7.36121V7.36121Z" fill="black"/>
<path d="M29.8462 19.7514C29.3886 19.2938 28.6466 19.2938 28.1889 19.7514C27.7313 20.2091 27.7313 20.951 28.1889 21.4087L29.6251 22.8449C29.8539 23.0738 30.1538 23.1882 30.4537 23.1882C30.7535 23.1882 31.0535 23.0738 31.2823 22.845C31.7398 22.3874 31.7399 21.6454 31.2823 21.1877L29.8462 19.7514Z" fill="black"/>
</svg>
