<svg width="38" height="40" viewBox="0 0 38 40" fill="none" xmlns="http://www.w3.org/2000/svg">
<g clip-path="url(#clip0)">
<path d="M34.2432 24.5056C33.5012 25.0621 32.9651 25.4642 31.7502 25.4642C30.5352 25.4642 29.9992 25.0621 29.2572 24.5056C28.4344 23.8885 27.4104 23.1205 25.5003 23.1205C23.5903 23.1205 22.5663 23.8885 21.7435 24.5056C21.0014 25.0622 20.4654 25.4642 19.2505 25.4642C18.0356 25.4642 17.4994 25.0621 16.7574 24.5056C15.9346 23.8885 14.9106 23.1205 13.0005 23.1205C11.0904 23.1205 10.0663 23.8885 9.24351 24.5056C8.50142 25.0621 7.96528 25.4642 6.75027 25.4642C5.53525 25.4642 4.99912 25.0621 4.25703 24.5056C3.43423 23.8885 2.41016 23.1205 0.5 23.1205V25.4642C1.71501 25.4642 2.25115 25.8663 2.99324 26.4229C3.81604 27.04 4.84011 27.808 6.75027 27.808C8.66042 27.808 9.6845 27.0399 10.5073 26.4229C11.2494 25.8663 11.7855 25.4642 13.0005 25.4642C14.2155 25.4642 14.7516 25.8663 15.4936 26.4229C16.3164 27.04 17.3404 27.808 19.2505 27.808C21.1605 27.808 22.1845 27.0399 23.0073 26.4229C23.7493 25.8663 24.2855 25.4642 25.5003 25.4642C26.7152 25.4642 27.2513 25.8663 27.9933 26.4228C28.8161 27.0399 29.8401 27.808 31.7502 27.808C33.6603 27.808 34.6843 27.0399 35.5071 26.4228C36.2491 25.8663 36.7851 25.4642 38 25.4642V23.1205C36.09 23.1205 35.066 23.8885 34.2432 24.5056Z" fill="white"/>
<path d="M29.2574 29.9743C28.4345 29.3573 27.4106 28.5892 25.5006 28.5892C23.5905 28.5892 22.5665 29.3573 21.7437 29.9744C21.0017 30.531 20.4656 30.933 19.2507 30.933C18.0358 30.933 17.4997 30.5309 16.7576 29.9743C15.9348 29.3572 14.9108 28.5892 13.0008 28.5892C11.0906 28.5892 10.0665 29.3573 9.24373 29.9743C8.50164 30.5309 7.9655 30.933 6.75049 30.933V33.2767C8.66064 33.2767 9.68472 32.5087 10.5075 31.8917C11.2496 31.3351 11.7857 30.933 13.0008 30.933C14.2156 30.933 14.7518 31.3351 15.4938 31.8917C16.3167 32.5088 17.3406 33.2767 19.2507 33.2767C21.1607 33.2767 22.1847 32.5087 23.0075 31.8917C23.7496 31.3351 24.2856 30.933 25.5006 30.933C26.7154 30.933 27.2515 31.3351 27.9935 31.8916C28.8163 32.5087 29.8403 33.2767 31.7504 33.2767V30.933C30.5354 30.933 29.9994 30.5309 29.2574 29.9743Z" fill="white"/>
<path d="M33.3268 17.6608C31.093 17.6608 29.0983 16.2705 28.2451 14.1187C26.4637 9.62616 22.358 6.72327 17.7852 6.72327C14.8366 6.72327 12.0421 7.92506 9.91631 10.1074L9.25596 10.7853L10.6407 13.0108L11.4863 12.6158C12.1154 12.322 12.7844 12.1797 13.4775 12.1928C13.7522 12.198 14.0279 12.2302 14.2969 12.2887C15.5417 12.559 16.0271 13.4818 16.2055 14.0077C16.4861 14.8344 16.3709 15.7285 15.8895 16.4607C15.3953 17.2121 14.5889 17.6607 13.7324 17.6607H0.5V20.0044H13.7324C15.3044 20.0044 16.7833 19.1828 17.6883 17.8066C18.5869 16.4404 18.7994 14.7649 18.2716 13.2099C17.7011 11.5292 16.4122 10.3563 14.7354 9.99209C14.5272 9.94686 14.3163 9.91217 14.1044 9.88827C15.2514 9.35014 16.5 9.06702 17.7851 9.06702C21.4731 9.06702 24.7845 11.4083 26.2213 15.0318C27.4191 18.0526 30.2083 20.0045 33.3268 20.0045H38V17.6608H33.3268V17.6608Z" fill="white"/>
</g>
<defs>
<clipPath id="clip0">
<rect width="37.5" height="40" fill="white" transform="translate(0.5)"/>
</clipPath>
</defs>
</svg>
