<svg width="40" height="40" viewBox="0 0 40 40" fill="none" xmlns="http://www.w3.org/2000/svg">
<path d="M35.9927 24.5056C35.2013 25.0621 34.6295 25.4642 33.3335 25.4642C32.0376 25.4642 31.4658 25.0621 30.6743 24.5056C29.7966 23.8885 28.7044 23.1205 26.667 23.1205C24.6296 23.1205 23.5373 23.8885 22.6597 24.5056C21.8682 25.0622 21.2964 25.4642 20.0005 25.4642C18.7047 25.4642 18.1327 25.0621 17.3413 24.5056C16.4636 23.8885 15.3713 23.1205 13.3339 23.1205C11.2964 23.1205 10.2041 23.8885 9.32641 24.5056C8.53484 25.0621 7.96297 25.4642 6.66695 25.4642C5.37094 25.4642 4.79906 25.0621 4.0075 24.5056C3.12984 23.8885 2.0375 23.1205 0 23.1205V25.4642C1.29602 25.4642 1.86789 25.8663 2.65945 26.4229C3.53711 27.04 4.62945 27.808 6.66695 27.808C8.70445 27.808 9.7968 27.0399 10.6745 26.4229C11.466 25.8663 12.0379 25.4642 13.3339 25.4642C14.6298 25.4642 15.2017 25.8663 15.9932 26.4229C16.8709 27.04 17.9631 27.808 20.0005 27.808C22.0379 27.808 23.1302 27.0399 24.0078 26.4229C24.7993 25.8663 25.3712 25.4642 26.667 25.4642C27.9629 25.4642 28.5347 25.8663 29.3262 26.4228C30.2038 27.0399 31.2961 27.808 33.3335 27.808C35.3709 27.808 36.4632 27.0399 37.3409 26.4228C38.1323 25.8663 38.7041 25.4642 40 25.4642V23.1205C37.9627 23.1205 36.8704 23.8885 35.9927 24.5056Z" fill="black"/>
<path d="M30.6743 29.9743C29.7966 29.3573 28.7044 28.5892 26.6671 28.5892C24.6296 28.5892 23.5374 29.3573 22.6597 29.9744C21.8682 30.5309 21.2964 30.933 20.0006 30.933C18.7046 30.933 18.1328 30.5309 17.3413 29.9743C16.4636 29.3572 15.3714 28.5892 13.3339 28.5892C11.2964 28.5892 10.2041 29.3573 9.32645 29.9743C8.53488 30.5309 7.96301 30.933 6.66699 30.933V33.2767C8.70449 33.2767 9.79684 32.5087 10.6745 31.8917C11.4661 31.3351 12.0379 30.933 13.3339 30.933C14.6298 30.933 15.2018 31.3351 15.9932 31.8917C16.8709 32.5088 17.9632 33.2767 20.0006 33.2767C22.0379 33.2767 23.1302 32.5087 24.0078 31.8917C24.7993 31.3351 25.3711 30.933 26.6671 30.933C27.9629 30.933 28.5347 31.3351 29.3262 31.8916C30.2039 32.5087 31.2961 33.2767 33.3336 33.2767V30.933C32.0376 30.933 31.4658 30.5309 30.6743 29.9743Z" fill="black"/>
<path d="M35.0152 17.6608C32.6325 17.6608 30.5048 16.2705 29.5948 14.1187C27.6946 9.62616 23.3152 6.72327 18.4375 6.72327C15.2924 6.72327 12.3116 7.92506 10.0441 10.1074L9.33969 10.7853L10.8168 13.0108L11.7188 12.6158C12.3898 12.322 13.1034 12.1797 13.8427 12.1928C14.1357 12.198 14.4298 12.2302 14.7167 12.2887C16.0445 12.559 16.5622 13.4818 16.7526 14.0077C17.0519 14.8344 16.929 15.7285 16.4155 16.4607C15.8884 17.2121 15.0282 17.6607 14.1145 17.6607H0V20.0044H14.1145C15.7914 20.0044 17.3688 19.1828 18.3342 17.8066C19.2927 16.4404 19.5194 14.7649 18.9563 13.2099C18.3478 11.5292 16.973 10.3563 15.1844 9.99209C14.9623 9.94686 14.7374 9.91217 14.5113 9.88827C15.7348 9.35014 17.0667 9.06702 18.4374 9.06702C22.3713 9.06702 25.9035 11.4083 27.4361 15.0318C28.7138 18.0526 31.6888 20.0045 35.0152 20.0045H40V17.6608H35.0152V17.6608Z" fill="black"/>
</svg>
