<svg width="152" height="69" viewBox="0 0 152 69" fill="none" xmlns="http://www.w3.org/2000/svg">
<path d="M150.442 56.338C149.319 54.763 147.13 54.4 145.56 55.525C139.396 59.928 132.112 61.979 122.635 61.979C98.5319 61.979 92.1019 46.615 92.1019 37.536C92.1019 29.888 97.0539 24.557 101.498 24.557C105.333 24.557 108.517 25.866 111.229 28.557C113.133 30.447 116.001 30.708 118.207 29.195C120.424 27.673 121.215 24.884 120.129 22.414C116.568 14.311 107.04 0.719971 83.2279 0.719971C64.9219 0.719971 48.3369 11.641 39.9809 29.152C30.0469 48.819 18.8599 58.966 3.7079 62.049C1.8129 62.435 0.590903 64.282 0.975903 66.177C1.3129 67.835 2.7719 68.98 4.4019 68.98C4.6329 68.98 4.8679 68.957 5.1039 68.909C22.3179 65.406 35.3859 53.776 46.2639 32.237C53.4829 17.114 67.6469 7.71897 83.2289 7.71897C97.8709 7.71897 105.944 13.696 110.325 19.455C107.638 18.192 104.688 17.557 101.5 17.557C92.4589 17.557 85.1039 26.519 85.1039 37.536C85.1039 52.681 96.8489 68.979 122.637 68.979C133.644 68.979 142.222 66.513 149.63 61.22C151.202 60.097 151.566 57.91 150.442 56.338Z" fill="white"/>
</svg>
