<?xml version="1.0" encoding="UTF-8" standalone="no"?>
<!DOCTYPE svg PUBLIC "-//W3C//DTD SVG 1.1//EN" "http://www.w3.org/Graphics/SVG/1.1/DTD/svg11.dtd">
<svg width="100%" height="100%" viewBox="0 0 50 50" version="1.1" xmlns="http://www.w3.org/2000/svg" xmlns:xlink="http://www.w3.org/1999/xlink" xml:space="preserve" xmlns:serif="http://www.serif.com/" style="fill-rule:evenodd;clip-rule:evenodd;stroke-linecap:round;stroke-linejoin:round;stroke-miterlimit:2;">
    <g transform="matrix(1,0,0,1,0,-80.5)">
        <g id="wave" transform="matrix(1,0,0,1,-700,80.5)">
            <rect x="700" y="0" width="50" height="50" style="fill:none;"/>
            <g id="noun_wave_1118212" transform="matrix(0.484202,0,0,0.484202,725.21,25.2301)">
                <g transform="matrix(1,0,0,1,-50,-62.5)">
                    <g transform="matrix(0.954657,0,0,0.954657,2,12.6788)">
                        <path d="M91.225,57.828C86.913,59.171 83.918,55.286 84.35,51.275C83.522,52.797 82.379,53.804 81.168,54.263C79.839,54.766 78.429,54.609 77.261,53.749C76.425,53.134 75.714,52.159 75.245,50.807C74.326,48.16 75.602,45.441 74.772,42.906C73.985,40.504 71.411,39.305 69.161,38.654M75.244,19.59C55.265,16.285 37.01,24.578 23.673,39.229C14.247,49.584 3.711,69.727 0,81.132L88.766,81.132C79.547,81.132 69.95,78.33 63.897,71.002C59.403,65.564 57.401,58.141 58.876,51.205C60.755,42.383 68.204,36.624 77.334,36.932C86.097,37.228 91.735,44.343 94.47,52.012C95.083,53.731 95.599,55.503 95.915,57.303C95.914,57.303 113.641,28.377 75.244,19.59Z" style="fill:none;stroke:black;stroke-width:3.14px;"/>
                    </g>
                </g>
            </g>
        </g>
    </g>
</svg>
