<?xml version="1.0" encoding="UTF-8" standalone="no"?>
<!DOCTYPE svg PUBLIC "-//W3C//DTD SVG 1.1//EN" "http://www.w3.org/Graphics/SVG/1.1/DTD/svg11.dtd">
<svg width="100%" height="100%" viewBox="0 0 50 50" version="1.1" xmlns="http://www.w3.org/2000/svg" xmlns:xlink="http://www.w3.org/1999/xlink" xml:space="preserve" xmlns:serif="http://www.serif.com/" style="fill-rule:evenodd;clip-rule:evenodd;stroke-linejoin:round;stroke-miterlimit:2;">
    <g transform="matrix(1,0,0,1,-499.744,0)">
        <g id="wave" transform="matrix(1,0,0,1,-0.512195,0)">
            <rect x="500.256" y="0" width="50" height="50" style="fill:none;"/>
            <g id="wave-6ce9965bfb1706d86ad4d27a9bdc1ab8df565a59ec8e7b069d0b21732aa1615a" transform="matrix(1.18773,0,0,1.18773,525.63,24.4052)">
                <g transform="matrix(1,0,0,1,-20,-20)">
                    <path d="M35.993,24.506C35.201,25.062 34.63,25.464 33.334,25.464C32.038,25.464 31.466,25.062 30.674,24.506C29.797,23.889 28.704,23.121 26.667,23.121C24.63,23.121 23.537,23.889 22.66,24.506C21.868,25.062 21.296,25.464 20.001,25.464C18.705,25.464 18.133,25.062 17.341,24.506C16.464,23.889 15.371,23.121 13.334,23.121C11.296,23.121 10.204,23.889 9.326,24.506C8.535,25.062 7.963,25.464 6.667,25.464C5.371,25.464 4.799,25.062 4.008,24.506C3.13,23.889 2.135,23.44 1.634,23.279C-0.334,22.646 -0.203,24.274 1,25.226C1.423,25.561 2.463,26.302 2.659,26.423C3.575,26.983 4.629,27.808 6.667,27.808C8.704,27.808 9.797,27.04 10.675,26.423C11.466,25.866 12.038,25.464 13.334,25.464C14.63,25.464 15.202,25.866 15.993,26.423C16.871,27.04 17.963,27.808 20.001,27.808C22.038,27.808 23.13,27.04 24.008,26.423C24.799,25.866 25.371,25.464 26.667,25.464C27.963,25.464 28.535,25.866 29.326,26.423C30.204,27.04 31.296,27.808 33.334,27.808C35.371,27.808 36.438,27.002 37.341,26.423C37.775,26.144 38.543,25.968 39.048,25.662C40.166,24.987 40.113,22.956 39.048,23.319C38.533,23.494 36.87,23.889 35.993,24.506Z" style="fill-rule:nonzero;"/>
                    <path d="M30.674,29.974C29.797,29.357 28.704,28.589 26.667,28.589C24.63,28.589 23.537,29.357 22.66,29.974C21.868,30.531 21.296,30.933 20.001,30.933C18.705,30.933 18.133,30.531 17.341,29.974C16.464,29.357 15.371,28.589 13.334,28.589C11.296,28.589 10.204,29.357 9.326,29.974C8.535,30.531 7.371,30.877 6.667,30.933C4.717,31.087 4.691,33.632 6.667,33.277C7.343,33.155 9.797,32.509 10.675,31.892C11.466,31.335 12.038,30.933 13.334,30.933C14.63,30.933 15.202,31.335 15.993,31.892C16.871,32.509 17.963,33.277 20.001,33.277C22.038,33.277 23.13,32.509 24.008,31.892C24.799,31.335 25.371,30.933 26.667,30.933C27.963,30.933 28.535,31.335 29.326,31.892C30.204,32.509 32.69,33.038 33.334,33.277C34.398,33.672 34.966,31.682 33.334,30.933C32.691,30.638 31.466,30.531 30.674,29.974Z" style="fill-rule:nonzero;"/>
                    <path d="M35.015,17.661C32.633,17.661 30.505,16.27 29.595,14.119C27.695,9.626 23.315,6.723 18.438,6.723C15.292,6.723 12.312,7.925 10.044,10.107C10.044,10.107 9.595,10.676 9.488,10.984C8.824,12.905 10.817,13.011 10.817,13.011L11.719,12.616C12.39,12.322 13.103,12.18 13.843,12.193C14.136,12.198 14.43,12.23 14.717,12.289C16.044,12.559 16.562,13.482 16.753,14.008C17.052,14.834 16.929,15.729 16.416,16.461C15.888,17.212 15.028,17.661 14.115,17.661C14.115,17.661 3.503,17.681 1.317,17.661C-0.416,17.644 -0.257,20.046 1.317,20.004C3.502,19.946 14.115,20.004 14.115,20.004C15.791,20.004 17.369,19.183 18.334,17.807C19.293,16.44 19.519,14.765 18.956,13.21C18.348,11.529 16.973,10.356 15.184,9.992C14.962,9.947 14.737,9.912 14.511,9.888C15.735,9.35 17.067,9.067 18.437,9.067C22.371,9.067 25.904,11.408 27.436,15.032C28.714,18.053 31.689,20.005 35.015,20.005C35.015,20.005 37.511,19.906 38.119,19.846C39.52,19.706 39.416,17.926 38.04,17.859C34.026,17.664 35.015,17.661 35.015,17.661Z" style="fill-rule:nonzero;"/>
                </g>
            </g>
        </g>
    </g>
</svg>
