<?xml version="1.0" encoding="UTF-8" standalone="no"?>
<!DOCTYPE svg PUBLIC "-//W3C//DTD SVG 1.1//EN" "http://www.w3.org/Graphics/SVG/1.1/DTD/svg11.dtd">
<svg width="100%" height="100%" viewBox="0 0 50 50" version="1.1" xmlns="http://www.w3.org/2000/svg" xmlns:xlink="http://www.w3.org/1999/xlink" xml:space="preserve" xmlns:serif="http://www.serif.com/" style="fill-rule:evenodd;clip-rule:evenodd;stroke-linejoin:round;stroke-miterlimit:2;">
    <g transform="matrix(1,0,0,1,-799.744,0)">
        <g id="weather" transform="matrix(1,0,0,1,-0.256098,0)">
            <rect x="800" y="0" width="50" height="50" style="fill:none;"/>
            <g id="temperature-1-466a059509734bcdbbbbfe70c4b4461eb57a7379fbca2c0598a1e1317480b101" serif:id="temperature 1-466a059509734bcdbbbbfe70c4b4461eb57a7379fbca2c0598a1e1317480b101" transform="matrix(1.19243,0,0,1.19243,825.59,24.7481)">
                <g transform="matrix(1,0,0,1,-20,-20)">
                    <path d="M18.32,24.823L18.32,5.078C18.32,2.278 16.042,0 13.242,0C10.442,0 8.164,2.278 8.164,5.078L8.164,24.823C6.049,26.415 4.805,28.888 4.805,31.563C4.805,36.215 8.59,40 13.242,40C17.895,40 21.68,36.215 21.68,31.563C21.68,28.888 20.435,26.415 18.32,24.823ZM13.242,37.656C9.882,37.656 7.148,34.923 7.148,31.563C7.148,29.472 8.202,27.55 9.967,26.423C10.304,26.208 10.508,25.835 10.508,25.435L10.508,5.078C10.508,3.57 11.735,2.344 13.242,2.344C14.75,2.344 15.977,3.57 15.977,5.078L15.977,25.435C15.977,25.835 16.18,26.208 16.518,26.423C18.282,27.55 19.336,29.472 19.336,31.563C19.336,34.923 16.602,37.656 13.242,37.656Z" style="fill-rule:nonzero;"/>
                    <path d="M14.414,28.248L14.414,5.078C14.414,4.431 13.889,3.906 13.242,3.906C12.595,3.906 12.07,4.431 12.07,5.078L12.07,28.248C10.706,28.732 9.727,30.035 9.727,31.562C9.727,33.501 11.304,35.078 13.242,35.078C15.181,35.078 16.758,33.501 16.758,31.562C16.758,30.035 15.778,28.732 14.414,28.248ZM13.242,32.734C12.596,32.734 12.07,32.209 12.07,31.563C12.07,30.916 12.596,30.391 13.242,30.391C13.888,30.391 14.414,30.916 14.414,31.563C14.414,32.209 13.888,32.734 13.242,32.734Z" style="fill-rule:nonzero;"/>
                    <path d="M21.836,6.221C21.189,6.221 20.664,6.745 20.664,7.393C20.664,8.04 21.189,8.564 21.836,8.564C24.501,8.564 26.67,10.733 26.67,13.399C26.67,16.064 24.501,18.233 21.836,18.233C21.189,18.233 20.664,18.757 20.664,19.405C20.664,20.052 21.189,20.576 21.836,20.576C25.794,20.576 29.014,17.356 29.014,13.399C29.014,9.441 25.794,6.221 21.836,6.221Z" style="fill-rule:nonzero;"/>
                    <path d="M21.836,4.375C22.483,4.375 23.008,3.85 23.008,3.203L23.008,1.172C23.008,0.525 22.483,0 21.836,0C21.189,0 20.664,0.525 20.664,1.172L20.664,3.203C20.664,3.85 21.189,4.375 21.836,4.375Z" style="fill-rule:nonzero;"/>
                    <path d="M21.836,22.422C21.189,22.422 20.664,22.947 20.664,23.594L20.664,25.625C20.664,26.272 21.189,26.797 21.836,26.797C22.483,26.797 23.008,26.272 23.008,25.625L23.008,23.594C23.008,22.947 22.483,22.422 21.836,22.422Z" style="fill-rule:nonzero;"/>
                    <path d="M34.023,12.227L31.992,12.227C31.345,12.227 30.82,12.751 30.82,13.399C30.82,14.046 31.345,14.57 31.992,14.57L34.023,14.57C34.67,14.57 35.195,14.046 35.195,13.399C35.195,12.751 34.67,12.227 34.023,12.227Z" style="fill-rule:nonzero;"/>
                    <path d="M29.045,7.361C29.345,7.361 29.645,7.247 29.874,7.018L31.31,5.582C31.768,5.124 31.768,4.382 31.31,3.924C30.853,3.467 30.11,3.467 29.653,3.924L28.217,5.361C27.759,5.818 27.759,6.56 28.217,7.018C28.445,7.247 28.745,7.361 29.045,7.361Z" style="fill-rule:nonzero;"/>
                    <path d="M29.846,19.751C29.389,19.294 28.647,19.294 28.189,19.751C27.731,20.209 27.731,20.951 28.189,21.409L29.625,22.845C29.854,23.074 30.154,23.188 30.454,23.188C30.754,23.188 31.054,23.074 31.282,22.845C31.74,22.387 31.74,21.645 31.282,21.188L29.846,19.751Z" style="fill-rule:nonzero;"/>
                </g>
            </g>
        </g>
    </g>
</svg>
