<?xml version="1.0" encoding="UTF-8" standalone="no"?>
<!DOCTYPE svg PUBLIC "-//W3C//DTD SVG 1.1//EN" "http://www.w3.org/Graphics/SVG/1.1/DTD/svg11.dtd">
<svg width="100%" height="100%" viewBox="0 0 50 50" version="1.1" xmlns="http://www.w3.org/2000/svg" xmlns:xlink="http://www.w3.org/1999/xlink" xml:space="preserve" xmlns:serif="http://www.serif.com/" style="fill-rule:evenodd;clip-rule:evenodd;stroke-linejoin:round;stroke-miterlimit:2;">
    <g transform="matrix(1,0,0,1,-300.756,-80.5)">
        <g id="weather" transform="matrix(1,0,0,1,-299.244,80.5)">
            <rect x="600" y="0" width="50" height="50" style="fill:none;"/>
            <g id="temperature-1-466a059509734bcdbbbbfe70c4b4461eb57a7379fbca2c0598a1e1317480b101" serif:id="temperature 1-466a059509734bcdbbbbfe70c4b4461eb57a7379fbca2c0598a1e1317480b101" transform="matrix(1.215,0,0,1.215,624.563,25.0333)">
                <g transform="matrix(1,0,0,1,-20,-20)">
                    <g transform="matrix(0.942622,0,0,0.942622,1.27569,1.29514)">
                        <path d="M18.32,24.823L18.32,5.078C18.32,2.278 16.042,0 13.242,0C10.442,0 8.164,2.278 8.164,5.078L8.164,24.823C6.049,26.415 4.805,28.888 4.805,31.563C4.805,36.215 8.59,40 13.242,40C17.895,40 21.68,36.215 21.68,31.563C21.68,28.888 20.435,26.415 18.32,24.823Z" style="fill:none;fill-rule:nonzero;stroke:black;stroke-width:1.27px;"/>
                    </g>
                    <g transform="matrix(0.942622,0,0,0.942622,1.27569,1.29514)">
                        <path d="M14.414,28.248L14.414,5.078C14.414,4.431 13.889,3.906 13.242,3.906C12.595,3.906 12.07,4.431 12.07,5.078L12.07,28.248C10.706,28.732 9.727,30.035 9.727,31.562C9.727,33.501 11.304,35.078 13.242,35.078C15.181,35.078 16.758,33.501 16.758,31.562C16.758,30.035 15.778,28.732 14.414,28.248Z" style="fill:none;fill-rule:nonzero;stroke:black;stroke-width:1.27px;"/>
                    </g>
                    <g transform="matrix(0.942622,0,0,0.942622,1.27569,1.29514)">
                        <path d="M21.836,6.221C21.189,6.221 18.327,6.745 18.327,7.393L18.327,19.46C18.327,20.108 21.189,20.576 21.836,20.576C25.794,20.576 29.014,17.356 29.014,13.399C29.014,9.441 25.794,6.221 21.836,6.221Z" style="fill:none;fill-rule:nonzero;stroke:black;stroke-width:1.27px;stroke-linecap:round;"/>
                    </g>
                    <g transform="matrix(0.942622,0,0,0.942622,1.27569,1.29514)">
                        <path d="M21.836,4.375L21.836,0L21.836,4.375" style="fill:none;fill-rule:nonzero;stroke:black;stroke-width:1.27px;stroke-linecap:round;"/>
                    </g>
                    <g transform="matrix(0.942622,0,0,0.942622,1.27569,1.29514)">
                        <path d="M21.836,22.422L21.836,26.797L21.836,22.422Z" style="fill:none;fill-rule:nonzero;stroke:black;stroke-width:1.27px;stroke-linecap:round;"/>
                    </g>
                    <g transform="matrix(0.942622,0,0,0.942622,1.27569,1.29514)">
                        <path d="M35.195,13.399L30.82,13.399L35.195,13.399Z" style="fill:none;fill-rule:nonzero;stroke:black;stroke-width:1.27px;stroke-linecap:round;"/>
                    </g>
                    <g transform="matrix(0.942622,0,0,0.942622,1.27569,1.29514)">
                        <path d="M28.217,7.018L31.31,3.924L28.217,7.018Z" style="fill:none;fill-rule:nonzero;stroke:black;stroke-width:1.27px;stroke-linecap:round;"/>
                    </g>
                    <g transform="matrix(0.942622,0,0,0.942622,1.27569,1.29514)">
                        <path d="M31.282,22.845L28.189,19.751L31.282,22.845Z" style="fill:none;fill-rule:nonzero;stroke:black;stroke-width:1.27px;stroke-linecap:round;"/>
                    </g>
                </g>
            </g>
        </g>
    </g>
</svg>
