<?xml version="1.0" encoding="UTF-8" standalone="no"?>
<!DOCTYPE svg PUBLIC "-//W3C//DTD SVG 1.1//EN" "http://www.w3.org/Graphics/SVG/1.1/DTD/svg11.dtd">
<svg width="100%" height="100%" viewBox="0 0 50 50" version="1.1" xmlns="http://www.w3.org/2000/svg" xmlns:xlink="http://www.w3.org/1999/xlink" xml:space="preserve" xmlns:serif="http://www.serif.com/" style="fill-rule:evenodd;clip-rule:evenodd;stroke-linecap:round;stroke-linejoin:round;stroke-miterlimit:10;">
    <g transform="matrix(1,0,0,1,-97.9089,-80.5)">
        <g id="wind" transform="matrix(1,0,0,1,-802.091,80.5)">
            <rect x="900" y="0" width="50" height="50" style="fill:none;"/>
            <g id="noun_Wind_854514" transform="matrix(1.07035,0,0,1.07035,923.747,38.9629)">
                <g transform="matrix(1,0,0,1,-50,-62.5)">
                    <path d="M53.453,40.523C53.453,40.523 52.953,35.106 58.62,35.106C64.287,35.106 63.703,40.523 63.703,40.523C63.703,40.523 63.792,45.106 58.581,45.106L30.37,45.106" style="fill:none;fill-rule:nonzero;stroke:black;stroke-width:1.5px;"/>
                    <path d="M68.119,43.356C68.119,43.356 71.869,43.273 71.869,46.523C71.869,49.773 68.786,49.356 68.786,49.356L64.369,49.373" style="fill:none;fill-rule:nonzero;stroke:black;stroke-width:1.5px;"/>
                    <path d="M30.369,50.023L56.036,50.023C56.036,50.023 64.286,49.69 64.369,57.94C64.452,66.19 56.702,66.273 56.702,66.273" style="fill:none;fill-rule:nonzero;stroke:black;stroke-width:1.5px;"/>
                    <path d="M50.869,61.106C50.869,61.106 55.119,60.939 55.119,57.689C55.119,54.439 50.869,54.439 50.869,54.439L30.369,54.439" style="fill:none;fill-rule:nonzero;stroke:black;stroke-width:1.5px;"/>
                </g>
            </g>
        </g>
    </g>
</svg>
