<svg width="38" height="30" viewBox="0 0 38 30" fill="none" xmlns="http://www.w3.org/2000/svg">
<g clip-path="url(#clip0)">
<path d="M26.0798 30H9.26877C4.43369 30 0.5 26.853 0.5 22.985C0.5 19.3698 3.90679 16.3819 8.27671 15.985C9.03579 13.0934 12.2382 10.9597 16.0897 10.9597C17.998 10.9597 19.8463 11.5107 21.2939 12.5111C22.3823 13.2633 23.1937 14.2324 23.6501 15.3073C27.1591 15.4913 29.9434 17.8358 29.9434 20.6912C29.9434 21.0376 29.8989 21.3851 29.8105 21.731C31.1346 22.608 31.9209 23.916 31.9209 25.3271C31.9209 27.9037 29.3006 30 26.0798 30ZM9.26877 18.2839C6.04905 18.2839 3.42969 20.3929 3.42969 22.985C3.42969 25.5607 6.04905 27.6562 9.26877 27.6562H26.0798C27.6852 27.6562 28.9912 26.6114 28.9912 25.3271C28.9912 24.4576 28.3916 23.6664 27.4264 23.2622C26.7652 22.9854 26.4698 22.355 26.7407 21.7986C26.9218 21.4265 27.0137 21.054 27.0137 20.6912C27.0137 19.0085 25.3052 17.6394 23.2052 17.6394C23.1469 17.6394 22.7721 17.6825 22.7054 17.6891C21.9233 17.7667 21.2045 17.3353 21.0789 16.7128C20.6871 14.7692 18.5422 13.3035 16.0897 13.3035C13.3533 13.3035 11.1348 14.997 11.0391 17.159C11.0253 17.4708 10.8567 17.7653 10.5707 17.9773C10.2846 18.1893 9.90452 18.3014 9.51501 18.2885C9.42295 18.2855 9.34246 18.2839 9.26877 18.2839V18.2839ZM23.4248 2.87109V1.17188C23.4248 0.524648 22.769 0 21.96 0C21.1509 0 20.4951 0.524648 20.4951 1.17188V2.87109C20.4951 3.51832 21.1509 4.04297 21.96 4.04297C22.769 4.04297 23.4248 3.51832 23.4248 2.87109ZM16.5753 5.15818C17.2643 4.81898 17.4792 4.09717 17.0552 3.54598L15.8833 2.02254C15.4593 1.47129 14.5569 1.29943 13.868 1.63869C13.179 1.97789 12.9642 2.69971 13.3882 3.2509L14.5601 4.77434C14.8368 5.13404 15.3171 5.33221 15.809 5.33221C16.0708 5.33221 16.336 5.27602 16.5753 5.15818V5.15818ZM12.5736 8.24889C13.0098 7.70373 12.8108 6.97904 12.1295 6.63018L10.2984 5.69268C9.61689 5.34369 8.71104 5.50289 8.27502 6.04799C7.83887 6.59314 8.03779 7.31783 8.71917 7.6667L10.5502 8.6042C10.7948 8.72941 11.0682 8.78918 11.3385 8.78918C11.8213 8.78918 12.294 8.5984 12.5736 8.24889ZM38 12.832C38 12.1848 37.3442 11.6602 36.5352 11.6602H34.4111C33.6021 11.6602 32.9463 12.1848 32.9463 12.832C32.9463 13.4793 33.6021 14.0039 34.4111 14.0039H36.5352C37.3442 14.0039 38 13.4793 38 12.832ZM33.421 8.88334L35.3253 8.06303C36.0377 7.75617 36.3042 7.04549 35.9206 6.47566C35.5371 5.90584 34.6487 5.69268 33.9364 5.99947L32.0321 6.81979C31.3197 7.12664 31.0533 7.83732 31.4368 8.40715C31.7015 8.80025 32.2063 9.02367 32.7279 9.02367C32.9623 9.02367 33.2001 8.9785 33.421 8.88334V8.88334ZM35.7405 19.4701C36.1567 18.9151 35.9318 18.1953 35.238 17.8623L33.407 16.9834C32.7132 16.6503 31.8134 16.8304 31.3972 17.3854C30.981 17.9404 31.2059 18.6602 31.8997 18.9932L33.7307 19.8721C33.9667 19.9853 34.2265 20.0392 34.483 20.0392C34.9806 20.0392 35.4658 19.8363 35.7405 19.4701ZM29.7066 4.96418L30.8166 3.55424C31.2478 3.00662 31.0424 2.28305 30.3578 1.93811C29.6733 1.59316 28.7688 1.75752 28.3377 2.30514L27.2276 3.71508C26.7965 4.2627 27.0019 4.98627 27.6865 5.33121C27.9289 5.45338 28.1989 5.51168 28.4658 5.51168C28.9522 5.51162 29.4282 5.31785 29.7066 4.96418V4.96418ZM29.3836 15.176C29.297 15.176 29.2093 15.1698 29.1209 15.157C28.3249 15.0417 27.7964 14.4319 27.9406 13.795C28.0031 13.5185 28.0391 13.1817 28.0391 12.8709C28.0391 10.1679 25.287 7.96875 21.9042 7.96875C20.5633 7.96875 19.2907 8.30666 18.2239 8.94592C17.5764 9.33398 16.6583 9.22852 16.1732 8.71055C15.6882 8.19252 15.82 7.45811 16.4675 7.07004C18.0452 6.12469 19.9251 5.625 21.9042 5.625C26.9024 5.625 30.9688 8.87555 30.9688 12.8711C30.9688 13.3221 30.9171 13.7986 30.8234 14.2127C30.6952 14.779 30.0783 15.176 29.3836 15.176V15.176ZM22.4727 23.6719C22.4727 21.6025 20.3699 19.9189 17.7852 19.9189C16.9761 19.9189 16.3203 20.4435 16.3203 21.0908C16.3203 21.738 16.9761 22.2626 17.7852 22.2626C18.7544 22.2626 19.543 22.8949 19.543 23.6719C19.543 24.3191 20.1988 24.8438 21.0078 24.8438C21.8168 24.8438 22.4727 24.3191 22.4727 23.6719Z" fill="white"/>
</g>
<defs>
<clipPath id="clip0">
<rect width="37.5" height="30" fill="white" transform="translate(0.5)"/>
</clipPath>
</defs>
</svg>
