<svg width="40" height="40" viewBox="0 0 40 40" fill="none" xmlns="http://www.w3.org/2000/svg">
<path d="M34.2857 10C31.1342 10 28.5714 12.5635 28.5714 15.7143C28.5714 16.5032 29.2104 17.1429 30 17.1429C30.7896 17.1429 31.4286 16.5032 31.4286 15.7143C31.4286 14.1385 32.7106 12.8571 34.2857 12.8571C35.8608 12.8571 37.1429 14.1385 37.1429 15.7143C37.1429 17.2901 35.8608 18.5714 34.2857 18.5714H1.54161C0.751966 18.5714 0.113037 19.2111 0.113037 20C0.113037 20.7889 0.751966 21.4286 1.54161 21.4286H34.2857C37.4372 21.4286 40 18.8651 40 15.7143C40 12.5635 37.4372 10 34.2857 10Z" fill="black"/>
<path d="M20 4.28577C16.8485 4.28577 14.2857 6.84925 14.2857 10.0001C14.2857 10.789 14.9246 11.4286 15.7143 11.4286C16.5039 11.4286 17.1429 10.789 17.1429 10.0001C17.1429 8.42425 18.4249 7.14291 20 7.14291C21.5751 7.14291 22.8571 8.42425 22.8571 10.0001C22.8571 11.5759 21.5751 12.8572 20 12.8572H1.42857C0.638929 12.8572 0 13.4968 0 14.2858C0 15.0747 0.638929 15.7143 1.42857 15.7143H20C23.1515 15.7143 25.7143 13.1509 25.7143 10.0001C25.7143 6.84925 23.1515 4.28577 20 4.28577Z" fill="black"/>
<path d="M20 24.2858H1.42857C0.638929 24.2858 0 24.9254 0 25.7143C0 26.5033 0.638929 27.1429 1.42857 27.1429H20C21.5751 27.1429 22.8571 28.4242 22.8571 30.0001C22.8571 31.5759 21.5751 32.8572 20 32.8572C18.4249 32.8572 17.1429 31.5759 17.1429 30.0001C17.1429 29.2111 16.5039 28.5715 15.7143 28.5715C14.9246 28.5715 14.2857 29.2111 14.2857 30.0001C14.2857 33.1509 16.8485 35.7143 20 35.7143C23.1515 35.7143 25.7143 33.1509 25.7143 30.0001C25.7143 26.8492 23.1515 24.2858 20 24.2858Z" fill="black"/>
</svg>
