<svg width="40" height="40" viewBox="0 0 40 40" fill="none" xmlns="http://www.w3.org/2000/svg">
<g clip-path="url(#clip0)">
<path d="M0.545008 21.186C2.91126 23.2156 5.59313 25.5161 10.7807 25.5161C15.9684 25.5161 18.6505 23.2156 21.0168 21.186C23.2546 19.2666 25.1873 17.6089 29.2184 17.6089C33.2495 17.6089 35.1822 19.2666 37.4199 21.186C38.075 21.7478 39.0614 21.6723 39.6232 21.0173C40.185 20.3622 40.1095 19.3758 39.4545 18.814C37.0881 16.7844 34.4061 14.4839 29.2184 14.4839C24.0306 14.4839 21.3486 16.7844 18.9823 18.814C16.7445 20.7334 14.8118 22.3911 10.7807 22.3911C6.7497 22.3911 4.81727 20.7335 2.57962 18.814C1.92462 18.2522 0.938211 18.3276 0.376336 18.9827C-0.185539 19.6377 -0.109992 20.6242 0.545008 21.186Z" fill="black"/>
<path d="M0.545008 12.6396C2.91118 14.6693 5.59306 16.9698 10.7807 16.9698C15.9684 16.9698 18.6505 14.6693 21.0168 12.6396C23.2546 10.7202 25.1872 9.0625 29.2184 9.0625C33.2494 9.0625 35.182 10.7202 37.4199 12.6396C38.075 13.2016 39.0613 13.1259 39.6231 12.4708C40.185 11.8158 40.1093 10.8292 39.4543 10.2675C37.088 8.23781 34.4059 5.9375 29.2184 5.9375C24.0306 5.9375 21.3486 8.23797 18.9823 10.2677C16.7445 12.187 14.8118 13.8448 10.7807 13.8448C6.74977 13.8448 4.81727 12.1871 2.57962 10.2677C1.92462 9.70578 0.938133 9.78125 0.376336 10.4363C-0.185539 11.0913 -0.109992 12.0778 0.545008 12.6396Z" fill="black"/>
<path d="M39.4551 27.3603C37.0888 25.3307 34.4068 23.0302 29.219 23.0302C24.0313 23.0302 21.3493 25.3306 18.9829 27.3603C16.7451 29.2797 14.8125 30.9374 10.7814 30.9374C6.7506 30.9374 4.81802 29.2798 2.58036 27.3605L2.58021 27.3603C1.92521 26.7987 0.938878 26.8741 0.377003 27.5291C-0.184794 28.1841 -0.109247 29.1705 0.545753 29.7323C2.912 31.762 5.59396 34.0624 10.7814 34.0624C15.9691 34.0624 18.6511 31.762 21.0175 29.7323C23.2553 27.8129 25.1879 26.1552 29.219 26.1552C33.2502 26.1552 35.1829 27.8129 37.4206 29.7323C38.0757 30.2941 39.0621 30.2186 39.6239 29.5636C40.1857 28.9085 40.1102 27.9221 39.4551 27.3603Z" fill="black"/>
</g>
<defs>
<clipPath id="clip0">
<rect width="40" height="40" fill="white"/>
</clipPath>
</defs>
</svg>
