<?xml version="1.0" encoding="UTF-8" standalone="no"?>
<!DOCTYPE svg PUBLIC "-//W3C//DTD SVG 1.1//EN" "http://www.w3.org/Graphics/SVG/1.1/DTD/svg11.dtd">
<svg width="100%" height="100%" viewBox="0 0 50 50" version="1.1" xmlns="http://www.w3.org/2000/svg" xmlns:xlink="http://www.w3.org/1999/xlink" xml:space="preserve" xmlns:serif="http://www.serif.com/" style="fill-rule:evenodd;clip-rule:evenodd;stroke-linejoin:round;stroke-miterlimit:2;">
    <g transform="matrix(1,0,0,1,-699.744,0)">
        <g id="winda" transform="matrix(1,0,0,1,-0.256098,0)">
            <rect x="700" y="0" width="50" height="50" style="fill:none;"/>
            <g id="windb-7e5c5f492d9f030de1a22d771d3b081babd74779263f9298d8d75ac926f81453" transform="matrix(1.16896,0,0,1.16896,724.496,25.4052)">
                <g transform="matrix(1,0,0,1,-20,-20)">
                    <path d="M34.286,10C31.134,10 28.571,12.564 28.571,15.714C28.571,16.503 29.21,17.143 30,17.143C30.79,17.143 31.429,16.503 31.429,15.714C31.429,14.139 32.711,12.857 34.286,12.857C35.861,12.857 37.143,14.139 37.143,15.714C37.143,17.29 35.861,18.571 34.286,18.571L1.542,18.571C0.752,18.571 0.113,19.211 0.113,20C0.113,20.789 0.752,21.429 1.542,21.429L34.286,21.429C37.437,21.429 40,18.865 40,15.714C40,12.564 37.437,10 34.286,10Z" style="fill-rule:nonzero;"/>
                    <path d="M20,4.286C16.849,4.286 14.286,6.849 14.286,10C14.286,10.789 14.925,11.429 15.714,11.429C16.504,11.429 17.143,10.789 17.143,10C17.143,8.424 18.425,7.143 20,7.143C21.575,7.143 22.857,8.424 22.857,10C22.857,11.576 21.575,12.857 20,12.857L1.429,12.857C0.639,12.857 0,13.497 0,14.286C0,15.075 0.639,15.714 1.429,15.714L20,15.714C23.151,15.714 25.714,13.151 25.714,10C25.714,6.849 23.151,4.286 20,4.286Z" style="fill-rule:nonzero;"/>
                    <path d="M20,24.286L1.429,24.286C0.639,24.286 0,24.925 0,25.714C0,26.503 0.639,27.143 1.429,27.143L20,27.143C21.575,27.143 22.857,28.424 22.857,30C22.857,31.576 21.575,32.857 20,32.857C18.425,32.857 17.143,31.576 17.143,30C17.143,29.211 16.504,28.572 15.714,28.572C14.925,28.572 14.286,29.211 14.286,30C14.286,33.151 16.849,35.714 20,35.714C23.151,35.714 25.714,33.151 25.714,30C25.714,26.849 23.151,24.286 20,24.286Z" style="fill-rule:nonzero;"/>
                </g>
            </g>
        </g>
    </g>
</svg>
